<svg width="31" height="27" viewBox="0 0 31 27" fill="none" xmlns="http://www.w3.org/2000/svg">
<path d="M15.5346 27C15.2924 27 15.0848 26.9295 14.9118 26.7533L3.97879 16.0026C3.8404 15.8969 3.70201 15.7559 3.49442 15.5444C3.28683 15.3329 2.97545 14.9452 2.52567 14.3812C2.07589 13.8172 1.69531 13.2533 1.34933 12.654C1.00335 12.0901 0.691963 11.3499 0.415177 10.5392C0.138392 9.72846 0 8.91775 0 8.1423C0 5.60444 0.726564 3.56005 2.17969 2.15013C3.63281 0.704961 5.63951 0 8.19977 0C8.89174 0 9.6183 0.140992 10.3449 0.387728C11.0714 0.634465 11.7634 0.986945 12.3862 1.40992C13.0089 1.8329 13.5971 2.25587 14.0469 2.60835C14.4967 2.99608 14.9464 3.38381 15.3616 3.80679L15.5 3.94778L15.6384 3.80679C16.0536 3.38381 16.5033 2.99608 16.9531 2.60835C17.4029 2.22063 17.9911 1.8329 18.6138 1.40992C19.2366 0.986945 19.9286 0.634465 20.6551 0.387728C21.3817 0.140992 22.1083 0 22.8002 0C25.3605 0 27.3672 0.740209 28.8203 2.15013C30.2734 3.5953 31 5.60444 31 8.1423C31 10.7154 29.6853 13.359 27.0558 16.0379L16.1228 26.7533C15.9844 26.9295 15.7768 27 15.5346 27ZM8.19977 1.8329C7.57701 1.8329 6.98884 1.86815 6.43527 1.97389C5.8817 2.07963 5.29353 2.25587 4.73995 2.53786C4.15178 2.81984 3.66741 3.20757 3.25223 3.6658C2.83705 4.12402 2.49107 4.72324 2.24888 5.49869C2.0067 6.2389 1.8683 7.15535 1.8683 8.10705C1.8683 10.1514 2.97545 12.3368 5.22433 14.5927L15.5692 24.7441L25.8795 14.6279C28.0937 12.3721 29.2355 10.1514 29.2355 8.10705C29.2355 7.1201 29.0971 6.2389 28.8549 5.49869C28.5781 4.72324 28.2667 4.12402 27.8516 3.6658C27.4364 3.20757 26.952 2.85509 26.3638 2.53786C25.7757 2.25587 25.2221 2.07963 24.6685 1.97389C24.115 1.86815 23.5268 1.8329 22.904 1.8329C22.2812 1.8329 21.5893 2.00914 20.8627 2.29112C20.1362 2.60836 19.4788 2.99608 18.8906 3.45431C18.3025 3.91253 17.7835 4.37076 17.3683 4.75849C16.9531 5.14621 16.5725 5.53394 16.2958 5.88642C16.1228 6.09791 15.8806 6.20366 15.6038 6.20366C15.2924 6.20366 15.0848 6.09791 14.9118 5.88642C14.635 5.53394 14.2545 5.18146 13.8393 4.75849C13.4241 4.37076 12.9051 3.91253 12.317 3.45431C11.7288 2.99608 11.0368 2.60836 10.3449 2.29112C9.51451 2.00914 8.82254 1.8329 8.19977 1.8329Z" fill="black"/>
</svg>
