<svg width="30" height="30" viewBox="0 0 30 30" fill="none" xmlns="http://www.w3.org/2000/svg">
<rect width="30.0005" height="30" rx="15" fill="#EEFFE9"/>
<path d="M15.0004 8.98744C16.94 8.98744 17.1986 8.98744 17.9745 9.0521C18.6857 9.11675 19.0736 9.18141 19.3323 9.31072C19.6555 9.44003 19.9142 9.56934 20.1728 9.82796C20.4314 10.0866 20.5607 10.3452 20.69 10.6685C20.8193 10.9271 20.884 11.315 20.9486 12.0262C21.0133 12.8021 21.0133 12.9961 21.0133 15.0004C21.0133 16.94 21.0133 17.1987 20.9486 17.9745C20.884 18.6857 20.8193 19.0736 20.69 19.3323C20.5607 19.6555 20.4314 19.9142 20.1728 20.1728C19.9142 20.4314 19.6555 20.5607 19.3323 20.69C19.0736 20.8193 18.6857 20.884 17.9745 20.9486C17.1986 21.0133 17.0047 21.0133 15.0004 21.0133C13.0607 21.0133 12.8021 21.0133 12.0262 20.9486C11.315 20.884 10.9271 20.8193 10.6685 20.69C10.3452 20.5607 10.0866 20.4314 9.82796 20.1728C9.56934 19.9142 9.44003 19.6555 9.31072 19.3323C9.18141 19.0736 9.11675 18.6857 9.05209 17.9745C8.98744 17.1987 8.98744 17.0047 8.98744 15.0004C8.98744 13.0607 8.98744 12.8021 9.05209 12.0262C9.11675 11.315 9.18141 10.9271 9.31072 10.6685C9.44003 10.3452 9.56934 10.0866 9.82796 9.82796C10.0866 9.56934 10.3452 9.44003 10.6685 9.31072C10.9271 9.18141 11.315 9.11675 12.0262 9.0521C12.8667 9.0521 13.0607 8.98744 15.0004 8.98744ZM15.0004 7.69434C12.9961 7.69434 12.7374 7.69434 11.9616 7.759C11.1857 7.82365 10.6685 7.88831 10.2159 8.08227C9.7633 8.27624 9.31072 8.53486 8.92278 8.92279C8.53485 9.31072 8.27623 9.76331 8.08227 10.2159C7.8883 10.6685 7.75899 11.1857 7.75899 11.9616C7.69434 12.7374 7.69434 12.9961 7.69434 15.0004C7.69434 17.0047 7.69434 17.2633 7.75899 18.0392C7.82365 18.815 7.8883 19.3323 8.08227 19.7849C8.27623 20.2374 8.53485 20.69 8.92278 21.078C9.31072 21.4659 9.7633 21.7245 10.2159 21.9185C10.6685 22.1124 11.1857 22.2418 11.9616 22.2418C12.7374 22.3064 12.9961 22.3064 15.0004 22.3064C17.0047 22.3064 17.2633 22.3064 18.0392 22.2418C18.815 22.1771 19.3323 22.1124 19.7849 21.9185C20.2374 21.7245 20.69 21.4659 21.078 21.078C21.4659 20.69 21.7245 20.2374 21.9185 19.7849C22.1124 19.3323 22.2417 18.815 22.2417 18.0392C22.3064 17.2633 22.3064 17.0047 22.3064 15.0004C22.3064 12.9961 22.3064 12.7374 22.2417 11.9616C22.1771 11.1857 22.1124 10.6685 21.9185 10.2159C21.7245 9.76331 21.4659 9.31072 21.078 8.92279C20.69 8.53486 20.2374 8.27624 19.7849 8.08227C19.3323 7.88831 18.815 7.759 18.0392 7.759C17.2633 7.69434 17.0047 7.69434 15.0004 7.69434Z" fill="#99CC5E"/>
<path d="M15.001 11.251C12.932 11.251 11.251 12.932 11.251 15.001C11.251 17.0699 12.932 18.751 15.001 18.751C17.0699 18.751 18.751 17.0699 18.751 15.001C18.751 12.932 17.1346 11.251 15.001 11.251ZM15.001 17.4579C13.6432 17.4579 12.5441 16.3587 12.5441 15.001C12.5441 13.6432 13.6432 12.5441 15.001 12.5441C16.3587 12.5441 17.4579 13.6432 17.4579 15.001C17.4579 16.3587 16.3587 17.4579 15.001 17.4579Z" fill="#99CC5E"/>
<path d="M19.784 11.121C19.784 11.5736 19.396 12.0262 18.8788 12.0262C18.4262 12.0262 17.9736 11.6382 17.9736 11.121C17.9736 10.6037 18.3616 10.2158 18.8788 10.2158C19.396 10.2158 19.784 10.6037 19.784 11.121Z" fill="#99CC5E"/>
</svg>
