<svg width="30" height="30" viewBox="0 0 30 30" fill="none" xmlns="http://www.w3.org/2000/svg">
<rect x="0.000976562" width="30" height="30" rx="15" fill="#EEFFE9"/>
<path d="M10.6665 12.291H7.33984V22.9674H10.6665V12.291Z" fill="#99CC5E"/>
<path d="M8.96536 10.8995C10.0485 10.8995 10.8995 10.0485 10.8995 8.96539C10.8995 7.88227 10.0485 7.03125 8.96536 7.03125C7.88226 7.03125 7.03125 7.88227 7.03125 8.96539C7.03125 9.97114 7.88226 10.8995 8.96536 10.8995Z" fill="#99CC5E"/>
<path d="M15.928 17.3199C15.928 15.8499 16.6243 14.9215 17.9395 14.9215C19.1773 14.9215 19.7189 15.7726 19.7189 17.3199C19.7189 18.8672 19.7189 22.8902 19.7189 22.8902H22.9681C22.9681 22.8902 22.9681 19.0219 22.9681 16.1594C22.9681 13.2969 21.3435 11.9043 19.0999 11.9043C16.8564 11.9043 15.8506 13.6837 15.8506 13.6837V12.2911H12.6787V22.9676H15.8506C15.928 22.8902 15.928 18.9446 15.928 17.3199Z" fill="#99CC5E"/>
</svg>
