<svg width="27" height="23" viewBox="0 0 27 23" fill="none" xmlns="http://www.w3.org/2000/svg">
<path d="M13.138 22.8797C13.0391 22.8825 12.9408 22.8644 12.8492 22.8265C12.7576 22.7885 12.6747 22.7316 12.6058 22.6593L3.33356 13.5493C3.19175 13.4273 3.05673 13.2972 2.92914 13.1598C2.75945 12.9792 2.48569 12.6534 2.11555 12.1814C1.75146 11.7199 1.41842 11.2339 1.11869 10.7266C0.795587 10.1593 0.534455 9.55762 0.339986 8.93236C0.120877 8.27801 0.00609038 7.59214 0 6.90082C0 4.74285 0.616695 3.03465 1.83293 1.82501C3.04917 0.615363 4.76384 0 6.92492 0C7.54561 0.00499979 8.16149 0.111519 8.74899 0.315499C9.36348 0.523459 9.94879 0.811872 10.4903 1.1735C11.0313 1.53477 11.5043 1.88039 11.8963 2.1971C12.2857 2.51474 12.6578 2.85384 13.0108 3.21288L13.135 3.33933L13.2592 3.21288C13.6122 2.85381 13.9843 2.51471 14.3737 2.1971C14.7669 1.87678 15.2399 1.53176 15.7791 1.1735C16.3209 0.811944 16.9064 0.523537 17.521 0.315499C18.1085 0.111458 18.7244 0.0049372 19.3451 0C21.5056 0 23.2191 0.614159 24.4371 1.82501C25.6551 3.03586 26.27 4.74285 26.27 6.90082C26.27 9.06843 25.143 11.3179 22.9193 13.5843L13.666 22.6599C13.5973 22.7314 13.5151 22.7877 13.4243 22.8255C13.3335 22.8633 13.236 22.8817 13.138 22.8797V22.8797Z" fill="#000"/>
</svg>
