<svg width="614" height="146" viewBox="0 0 614 146" fill="none" xmlns="http://www.w3.org/2000/svg">
<path d="M33.4 106.4C29.5 106.4 26 105 23.2 102.2C20.5 99.4998 19 95.9998 19 92.0998V34.1998C19 30.2998 20.5 26.7998 23.2 23.9998C25.9 21.2998 29.5 19.7998 33.4 19.7998H55.3C65.6 19.7998 73.9 22.6998 80.1 28.3998C86.5 34.2998 89.7 41.9998 89.7 51.4998V51.6998C89.7 58.4998 88 64.4998 84.6 69.4998C81.2 74.4998 76.7 78.1998 71.2 80.4998C66 82.6998 60.2 83.7998 53.7 83.7998H47.7V92.0998C47.7 95.9998 46.3 99.4998 43.5 102.3C40.8 105 37.3 106.4 33.4 106.4ZM54.2 56.7998C56.6 56.7998 58.2 56.2998 59.3 55.2998C60.3 54.3998 60.7 53.4998 60.7 51.9998V51.7998C60.7 49.3998 59.9 48.7998 59.5 48.3998C58.4 47.4998 56.5 46.9998 53.9 46.9998H47.7V56.7998H54.2Z" fill="white"/>
<path d="M108.4 105.8C104.5 105.8 101 104.3 98.2 101.6C95.5 98.9002 94 95.3002 94 91.4002V33.6002C94 29.7002 95.5 26.2002 98.2 23.4002C100.9 20.7002 104.5 19.2002 108.4 19.2002C112.3 19.2002 115.9 20.7002 118.6 23.4002C121.3 26.2002 122.8 29.7002 122.8 33.6002V78.5002H146.4C150.1 78.5002 153.5 79.9002 156.1 82.5002C158.7 85.1002 160 88.5002 160 92.2002C160 95.9002 158.6 99.3002 156 101.9C153.4 104.5 150.1 105.9 146.3 105.9H108.4V105.8Z" fill="white"/>
<path d="M178.7 105.8C174.8 105.8 171.3 104.3 168.5 101.6C165.8 98.8998 164.3 95.2998 164.3 91.3998V34.1998C164.3 30.2998 165.8 26.7998 168.5 23.9998C171.2 21.2998 174.8 19.7998 178.7 19.7998H219.3C223 19.7998 226.4 21.1998 228.9 23.6998C231.5 26.2998 232.8 29.5998 232.8 33.2998C232.8 37.0998 231.4 40.3998 228.8 42.8998C226.2 45.3998 222.9 46.6998 219.3 46.6998H192.9V48.9998H214.6C218.3 48.9998 221.6 50.2998 224.2 52.8998C226.8 55.4998 228.2 58.7998 228.2 62.4998C228.2 66.2998 226.8 69.5998 224.2 72.0998C221.6 74.5998 218.3 75.8998 214.6 75.8998H192.9V78.6998H219.9C223.6 78.6998 227 80.0998 229.5 82.6998C232.1 85.2998 233.4 88.5998 233.4 92.2998C233.4 95.9998 232 99.3998 229.4 101.9C226.8 104.4 223.5 105.7 219.8 105.7H178.7V105.8Z" fill="white"/>
<path d="M343.6 106.4C339.7 106.4 336.2 105 333.4 102.2C330.6 99.4998 329.2 95.8998 329.2 91.9998V34.1998C329.2 30.2998 330.7 26.7998 333.4 23.9998C336.1 21.2998 339.7 19.7998 343.6 19.7998H365.5C375.8 19.7998 384.1 22.6998 390.3 28.3998C396.7 34.2998 399.9 41.9998 399.9 51.4998V51.6998C399.9 58.4998 398.2 64.4998 394.8 69.4998C391.4 74.4998 386.9 78.1998 381.4 80.4998C376.2 82.6998 370.4 83.7998 363.9 83.7998H357.9V92.0998C357.9 95.9998 356.5 99.4998 353.7 102.3C351.1 105 347.6 106.4 343.6 106.4ZM364.5 56.7998C366.8 56.7998 368.5 56.2998 369.6 55.2998C370.6 54.3998 371 53.4998 371 51.9998V51.7998C371 49.3998 370.2 48.7998 369.8 48.3998C368.7 47.4998 366.8 46.9998 364.2 46.9998H358V56.7998H364.5Z" fill="white"/>
<path d="M269.7 50.5998C276.1 44.1998 286.5 44.1998 292.9 50.5998L320.1 77.7998C326.5 84.1998 326.5 94.5998 320.1 101C313.7 107.4 303.3 107.4 296.9 101L269.7 73.7998C263.3 67.3998 263.3 56.9998 269.7 50.5998Z" fill="#99CC5E"/>
<path d="M293 73.8006C286.6 80.2006 276.2 80.2006 269.8 73.8006L242.6 46.6006C236.2 40.2006 236.2 29.8006 242.6 23.4006C249 17.0006 259.4 17.0006 265.8 23.4006L293 50.6006C299.4 57.0006 299.4 67.4006 293 73.8006Z" fill="#99CC5E"/>
<path d="M269.7 73.8006C263.3 67.4006 263.3 57.0006 269.7 50.6006L296.9 23.4006C303.3 17.0006 313.7 17.0006 320.1 23.4006C326.5 29.8006 326.5 40.2006 320.1 46.6006L292.9 73.8006C286.5 80.2006 276.1 80.2006 269.7 73.8006Z" fill="white"/>
<path d="M292.9 97L269.7 73.8L293 50.5L304.6 62.1L293 73.7C286.5 80.2 286.5 90.6 292.9 97Z" fill="white"/>
<path d="M293 50.5005C299.4 56.9005 299.4 67.3005 293 73.7005L265.8 101C259.4 107.4 249 107.4 242.6 101C236.2 94.6005 236.2 84.2005 242.6 77.8005L269.8 50.6005C276.1 44.1005 286.5 44.1005 293 50.5005Z" fill="white"/>
<path d="M269.7 27.2998L293 50.5998L269.7 73.8998L258.1 62.2998L269.7 50.6998C276.1 44.0998 276.1 33.6998 269.7 27.2998Z" fill="white"/>
<path d="M449.6 72.6V53.2C449.6 52.5 449.9 51.8 450.4 51.3C450.9 50.8 451.6 50.5 452.3 50.5C453 50.5 453.7 50.8 454.2 51.3C454.7 51.8 455 52.5 455 53.2V72.6C455 73.3 454.7 74 454.2 74.5C453.7 75 453 75.3 452.3 75.3C451.6 75.3 450.9 75 450.4 74.5C449.9 74 449.6 73.3 449.6 72.6Z" fill="#99CC5E"/>
<path d="M461 72.6V53.3C461 52.6 461.3 51.9 461.8 51.4C462.3 50.9 463 50.6 463.7 50.6H464.2C464.8 50.6 465.3 50.7 465.7 51C466.1 51.3 466.5 51.6 466.9 52.2L477.2 65.7V53.2C477.2 52.5 477.5 51.8 478 51.3C478.5 50.8 479.1 50.5 479.9 50.5C480.6 50.5 481.3 50.8 481.8 51.3C482.3 51.8 482.6 52.4 482.6 53.2V72.5C482.6 73.2 482.3 73.9 481.8 74.4C481.3 74.9 480.6 75.2 479.9 75.2H479.7C479.1 75.2 478.6 75.1 478.2 74.8C477.8 74.5 477.4 74.2 477 73.6L466.3 59.6V72.6C466.3 73.3 466 74 465.5 74.5C465 75 464.4 75.3 463.6 75.3C462.9 75.3 462.2 75 461.7 74.5C461.3 74 461 73.4 461 72.6Z" fill="#99CC5E"/>
<path d="M488.5 72.4002V53.4002C488.5 52.7002 488.8 52.0002 489.3 51.5002C489.8 51.0002 490.5 50.7002 491.2 50.7002H498C499.9 50.7002 501.6 51.0002 503.2 51.6002C504.8 52.2002 506.2 53.1002 507.3 54.1002C508.4 55.2002 509.3 56.5002 509.9 57.9002C510.5 59.4002 510.8 61.0002 510.8 62.7002V62.8002C510.8 64.5002 510.5 66.1002 509.9 67.6002C509.3 69.1002 508.4 70.4002 507.3 71.5002C506.2 72.6002 504.8 73.4002 503.2 74.1002C501.6 74.7002 499.8 75.0002 498 75.0002H491.2C490.5 75.0002 489.8 74.7002 489.3 74.2002C488.7 73.8002 488.5 73.1002 488.5 72.4002ZM493.8 70.2002H497.9C500.1 70.2002 501.8 69.5002 503.2 68.2002C504.6 66.9002 505.2 65.1002 505.2 63.0002V62.9002C505.2 60.7002 504.5 59.0002 503.2 57.6002C501.8 56.2002 500.1 55.6002 497.9 55.6002H493.8V70.2002Z" fill="#99CC5E"/>
<path d="M515.8 72.6V53.2C515.8 52.5 516.1 51.8 516.6 51.3C517.1 50.8 517.8 50.5 518.5 50.5C519.2 50.5 519.9 50.8 520.4 51.3C520.9 51.8 521.2 52.5 521.2 53.2V72.6C521.2 73.3 520.9 74 520.4 74.5C519.9 75 519.2 75.3 518.5 75.3C517.8 75.3 517.1 75 516.6 74.5C516.1 74 515.8 73.3 515.8 72.6Z" fill="#99CC5E"/>
<path d="M525.6 72.8004C525.6 72.5004 525.7 72.1004 525.9 71.6004L534.4 52.5004C535 51.1004 536.1 50.4004 537.5 50.4004H537.8C539.2 50.4004 540.3 51.1004 540.9 52.5004L549.4 71.6004C549.6 72.1004 549.7 72.4004 549.7 72.7004C549.7 73.4004 549.5 74.0004 549 74.5004C548.5 75.0004 547.9 75.2004 547.2 75.2004C546.1 75.2004 545.2 74.6004 544.6 73.4004L543 69.6004H532.3L530.6 73.6004C530.1 74.7004 529.3 75.3004 528.1 75.3004C527.4 75.3004 526.8 75.1004 526.4 74.6004C525.8 74.1004 525.6 73.5004 525.6 72.8004ZM534.2 64.9004H540.9L537.5 56.9004L534.2 64.9004Z" fill="#99CC5E"/>
<path d="M591.6 45.6C589.3 40.2 586.2 35.5 582.2 31.5C578.2 27.5 573.3 24.3 567.7 22C562.1 19.7 556.1 18.6 549.9 18.5H449.4C443.1 18.5 437.2 19.7 431.6 22C426 24.3 421.1 27.5 417.1 31.5C413.1 35.5 410 40.2 407.7 45.6C405.4 51 404.3 56.8 404.3 62.8V63C404.3 69 405.4 74.7 407.7 80.1C410 85.5 413.1 90.2 417 94.2C421 98.2 425.8 101.4 431.5 103.7C437.1 106 443.1 107.1 449.5 107.1H549.9C556.2 107.1 562.3 105.9 567.9 103.7C573.5 101.4 578.4 98.2 582.4 94.2C586.3 90.2 589.5 85.5 591.7 80.1C593.9 74.7 595 69 595 63V62.8C595 56.8 593.8 51 591.6 45.6ZM565.5 62.8C565.5 65.9 564.8 68.7 563.4 71.3C562 73.8 560.2 75.8 557.7 77.3C555.3 78.8 552.7 79.5 549.7 79.5H449.6H449.5C446.5 79.5 443.9 78.8 441.5 77.3C439 75.8 437.2 73.8 435.8 71.3C434.4 68.7 433.7 65.9 433.7 62.8V62.6C433.7 59.5 434.4 56.7 435.7 54.1C437 51.6 438.8 49.7 441.2 48.3C443.6 46.8 446.3 46.1 449.3 46.1H449.4H549.6C552.7 46.1 555.3 46.8 557.7 48.3C560.1 49.8 561.9 51.7 563.2 54.1C564.6 56.7 565.2 59.5 565.2 62.6V62.8H565.5Z" fill="white"/>
<path d="M19 134.4V122.6C19 122.1 19.2 121.8 19.5 121.4C19.8 121.1 20.2 120.9 20.7 120.9C21.2 120.9 21.5 121.1 21.9 121.4C22.2 121.7 22.4 122.1 22.4 122.6V134.4C22.4 134.9 22.2 135.2 21.9 135.6C21.6 135.9 21.2 136.1 20.7 136.1C20.2 136.1 19.9 135.9 19.5 135.6C19.2 135.3 19 134.9 19 134.4Z" fill="#99CC5E"/>
<path d="M26 134.5V122.7C26 122.2 26.2 121.9 26.5 121.5C26.8 121.2 27.2 121 27.7 121H28C28.4 121 28.7 121.1 28.9 121.2C29.2 121.4 29.4 121.6 29.7 121.9L36 130.2V122.5C36 122 36.2 121.7 36.5 121.4C36.8 121.1 37.2 120.9 37.6 120.9C38.1 120.9 38.4 121.1 38.7 121.4C39 121.7 39.2 122.1 39.2 122.5V134.3C39.2 134.8 39 135.1 38.7 135.5C38.4 135.8 38 136 37.5 136H37.4C37 136 36.7 135.9 36.5 135.8C36.2 135.6 36 135.4 35.7 135.1L29.2 126.5V134.5C29.2 135 29 135.3 28.7 135.6C28.4 135.9 28 136.1 27.6 136.1C27.1 136.1 26.8 135.9 26.5 135.6C26.1 135.3 26 134.9 26 134.5Z" fill="#99CC5E"/>
<path d="M46.2 134.401V124.101H43C42.6 124.101 42.2 124.001 41.9 123.701C41.6 123.401 41.5 123.101 41.5 122.601C41.5 122.201 41.6 121.801 41.9 121.501C42.2 121.201 42.6 121.101 43 121.101H52.5C52.9 121.101 53.3 121.201 53.6 121.501C53.9 121.801 54 122.201 54 122.601C54 123.001 53.9 123.401 53.6 123.701C53.3 124.001 52.9 124.101 52.5 124.101H49.4V134.401C49.4 134.901 49.2 135.201 48.9 135.601C48.6 135.901 48.2 136.101 47.7 136.101C47.2 136.101 46.9 135.901 46.5 135.601C46.3 135.301 46.2 134.901 46.2 134.401Z" fill="#99CC5E"/>
<path d="M66.4004 136H58.1004C57.6004 136 57.3004 135.8 56.9004 135.5C56.6004 135.2 56.4004 134.8 56.4004 134.3V122.7C56.4004 122.2 56.6004 121.9 56.9004 121.5C57.2004 121.2 57.6004 121 58.1004 121H66.3004C66.7004 121 67.1004 121.1 67.3004 121.4C67.6004 121.7 67.7004 122 67.7004 122.4C67.7004 122.8 67.6004 123.2 67.3004 123.4C67.0004 123.7 66.7004 123.8 66.3004 123.8H59.7004V126.8H65.4004C65.8004 126.8 66.2004 126.9 66.4004 127.2C66.7004 127.5 66.8004 127.8 66.8004 128.2C66.8004 128.6 66.7004 129 66.4004 129.2C66.1004 129.5 65.8004 129.6 65.4004 129.6H59.7004V132.7H66.4004C66.8004 132.7 67.2004 132.8 67.4004 133.1C67.7004 133.4 67.8004 133.7 67.8004 134.1C67.8004 134.5 67.7004 134.9 67.4004 135.1C67.2004 135.8 66.8004 136 66.4004 136Z" fill="#99CC5E"/>
<path d="M70.7002 134.4V122.7C70.7002 122.2 70.9002 121.9 71.2002 121.5C71.5002 121.2 71.9002 121 72.4002 121H77.5002C79.4002 121 80.8002 121.5 81.8002 122.5C82.6002 123.3 83.1002 124.5 83.1002 125.9V126C83.1002 128.2 82.1002 129.7 80.1002 130.5L82.4002 133.3C82.8002 133.7 82.9002 134.2 82.9002 134.6C82.9002 135 82.7002 135.4 82.4002 135.7C82.1002 136 81.7002 136.1 81.3002 136.1C80.7002 136.1 80.2002 135.8 79.7002 135.3L76.5002 131.3H73.9002V134.6C73.9002 135.1 73.7002 135.4 73.4002 135.8C73.1002 136.1 72.7002 136.3 72.2002 136.3C71.7002 136.3 71.4002 136.1 71.0002 135.8C70.8002 135.3 70.7002 134.9 70.7002 134.4ZM73.9002 128.3H77.2002C78.0002 128.3 78.6002 128.1 79.0002 127.7C79.4002 127.3 79.7002 126.8 79.7002 126.2C79.7002 125.5 79.5002 125 79.0002 124.6C78.6002 124.2 77.9002 124.1 77.1002 124.1H73.8002V128.3H73.9002Z" fill="#99CC5E"/>
<path d="M86 134.5V122.7C86 122.2 86.2 121.9 86.5 121.5C86.8 121.2 87.2 121 87.7 121H88C88.4 121 88.7 121.1 88.9 121.2C89.2 121.4 89.4 121.6 89.7 121.9L96 130.2V122.5C96 122 96.2 121.7 96.5 121.4C96.8 121.1 97.2 120.9 97.6 120.9C98 120.9 98.4 121.1 98.7 121.4C99 121.7 99.2 122.1 99.2 122.5V134.3C99.2 134.8 99 135.1 98.7 135.5C98.4 135.8 98 136 97.5 136H97.4C97 136 96.7 135.9 96.5 135.8C96.2 135.6 96 135.4 95.7 135.1L89.2 126.5V134.5C89.2 135 89 135.3 88.7 135.6C88.4 135.9 88 136.1 87.6 136.1C87.1 136.1 86.8 135.9 86.5 135.6C86.2 135.3 86 134.9 86 134.5Z" fill="#99CC5E"/>
<path d="M101.7 134.6C101.7 134.4 101.8 134.2 101.9 133.9L107.1 122.2C107.5 121.3 108.1 120.9 109 120.9H109.2C110.1 120.9 110.7 121.3 111.1 122.2L116.3 133.9C116.4 134.2 116.5 134.4 116.5 134.6C116.5 135 116.3 135.4 116 135.7C115.7 136 115.3 136.2 114.9 136.2C114.2 136.2 113.7 135.8 113.3 135.1L112.3 132.8H105.8L104.8 135.2C104.5 135.9 104 136.2 103.3 136.2C102.9 136.2 102.5 136.1 102.2 135.8C101.9 135.3 101.7 135 101.7 134.6ZM107 129.7H111.1L109 124.8L107 129.7Z" fill="#99CC5E"/>
<path d="M120.8 134.401V124.101H117.7C117.3 124.101 116.9 124.001 116.6 123.701C116.3 123.401 116.2 123.101 116.2 122.601C116.2 122.201 116.3 121.801 116.6 121.501C116.9 121.201 117.3 121.101 117.7 121.101H127.2C127.6 121.101 128 121.201 128.3 121.501C128.6 121.801 128.7 122.201 128.7 122.601C128.7 123.001 128.6 123.401 128.3 123.701C128 124.001 127.6 124.101 127.2 124.101H124.1V134.401C124.1 134.901 123.9 135.201 123.6 135.601C123.3 135.901 122.9 136.101 122.4 136.101C121.9 136.101 121.6 135.901 121.2 135.601C121 135.301 120.8 134.901 120.8 134.401Z" fill="#99CC5E"/>
<path d="M131.3 134.4V122.6C131.3 122.1 131.5 121.8 131.8 121.4C132.1 121.1 132.5 120.9 133 120.9C133.5 120.9 133.8 121.1 134.2 121.4C134.5 121.7 134.7 122.1 134.7 122.6V134.4C134.7 134.9 134.5 135.2 134.2 135.6C133.9 135.9 133.5 136.1 133 136.1C132.5 136.1 132.2 135.9 131.8 135.6C131.4 135.3 131.3 134.9 131.3 134.4Z" fill="#99CC5E"/>
<path d="M148.6 135.6C147.6 136 146.6 136.2 145.4 136.2C144.3 136.2 143.2 136 142.2 135.6C141.2 135.2 140.4 134.7 139.7 134C139 133.3 138.5 132.5 138.1 131.6C137.7 130.7 137.5 129.7 137.5 128.6C137.5 127.6 137.7 126.6 138.1 125.6C138.5 124.7 139 123.8 139.7 123.2C140.4 122.5 141.2 122 142.2 121.6C143.2 121.2 144.2 121 145.4 121C146.9 121 148.2 121.3 149.4 122C150.6 122.7 151.5 123.6 152.2 124.8C152.9 126 153.2 127.2 153.2 128.6C153.2 129.6 153 130.6 152.6 131.6C152.2 132.5 151.7 133.4 151 134C150.4 134.6 149.6 135.2 148.6 135.6ZM143.2 132.6C143.9 133 144.7 133.2 145.5 133.2C146.4 133.2 147.1 133 147.8 132.6C148.5 132.2 149 131.6 149.4 130.9C149.8 130.2 150 129.4 150 128.6C150 127.3 149.6 126.2 148.7 125.3C147.8 124.4 146.8 123.9 145.5 123.9C144.6 123.9 143.9 124.1 143.2 124.5C142.5 124.9 142 125.5 141.6 126.2C141.2 126.9 141 127.7 141 128.5C141 129.3 141.2 130.1 141.6 130.8C142 131.6 142.5 132.1 143.2 132.6Z" fill="#99CC5E"/>
<path d="M156.3 134.5V122.7C156.3 122.2 156.5 121.9 156.8 121.5C157.1 121.2 157.5 121 158 121H158.3C158.7 121 159 121.1 159.2 121.2C159.5 121.4 159.7 121.6 160 121.9L166.3 130.2V122.5C166.3 122 166.5 121.7 166.8 121.4C167.1 121.1 167.5 120.9 167.9 120.9C168.4 120.9 168.7 121.1 169 121.4C169.3 121.7 169.5 122.1 169.5 122.5V134.3C169.5 134.8 169.3 135.1 169 135.5C168.7 135.8 168.3 136 167.8 136H167.7C167.3 136 167 135.9 166.8 135.8C166.5 135.6 166.3 135.4 166 135.1L159.5 126.5V134.5C159.5 135 159.3 135.3 159 135.6C158.7 135.9 158.3 136.1 157.9 136.1C157.4 136.1 157.1 135.9 156.8 135.6C156.4 135.3 156.3 134.9 156.3 134.5Z" fill="#99CC5E"/>
<path d="M172 134.6C172 134.4 172.1 134.2 172.2 133.9L177.4 122.2C177.8 121.3 178.4 120.9 179.3 120.9H179.5C180.4 120.9 181 121.3 181.4 122.2L186.6 133.9C186.7 134.2 186.8 134.4 186.8 134.6C186.8 135 186.6 135.4 186.3 135.7C186 136 185.6 136.2 185.2 136.2C184.5 136.2 184 135.8 183.6 135.1L182.6 132.8H176L175 135.2C174.7 135.9 174.2 136.2 173.5 136.2C173.1 136.2 172.7 136.1 172.4 135.8C172.1 135.3 172 135 172 134.6ZM177.3 129.7H181.4L179.3 124.8L177.3 129.7Z" fill="#99CC5E"/>
<path d="M189.2 134.3V122.6C189.2 122.1 189.4 121.8 189.7 121.4C190 121.1 190.4 120.9 190.9 120.9C191.4 120.9 191.7 121.1 192.1 121.4C192.4 121.7 192.6 122.1 192.6 122.6V133H198.6C199 133 199.4 133.1 199.7 133.4C200 133.7 200.1 134 200.1 134.5C200.1 134.9 200 135.3 199.7 135.6C199.4 135.9 199.1 136 198.6 136H190.9C190.4 136 190.1 135.8 189.7 135.5C189.4 135.2 189.2 134.8 189.2 134.3Z" fill="#99CC5E"/>
<path d="M208.7 134.4V122.7C208.7 122.2 208.9 121.9 209.2 121.5C209.5 121.2 209.9 121 210.4 121H214.8C216.6 121 217.9 121.5 219 122.4C220 123.3 220.5 124.6 220.5 126.1C220.5 127.2 220.2 128.2 219.7 129C219.2 129.8 218.4 130.4 217.5 130.8C216.6 131.2 215.6 131.4 214.5 131.4H212V134.4C212 134.9 211.8 135.2 211.5 135.6C211.2 135.9 210.8 136.1 210.3 136.1C209.8 136.1 209.5 135.9 209.1 135.6C208.9 135.3 208.7 134.9 208.7 134.4ZM212 128.6H214.6C215.4 128.6 216 128.4 216.5 128C217 127.6 217.2 127 217.2 126.4C217.2 125.7 217 125.1 216.5 124.7C216 124.3 215.4 124.1 214.6 124.1H212V128.6Z" fill="#99CC5E"/>
<path d="M222.9 134.3V122.6C222.9 122.1 223.1 121.8 223.4 121.4C223.7 121.1 224.1 120.9 224.6 120.9C225.1 120.9 225.4 121.1 225.8 121.4C226.1 121.7 226.3 122.1 226.3 122.6V133H232.3C232.7 133 233.1 133.1 233.4 133.4C233.7 133.7 233.8 134 233.8 134.5C233.8 134.9 233.7 135.3 233.4 135.6C233.1 135.9 232.8 136 232.3 136H224.6C224.1 136 223.8 135.8 223.4 135.5C223 135.2 222.9 134.8 222.9 134.3Z" fill="#99CC5E"/>
<path d="M235 134.6C235 134.4 235.1 134.2 235.2 133.9L240.4 122.2C240.8 121.3 241.4 120.9 242.3 120.9H242.5C243.4 120.9 244 121.3 244.4 122.2L249.6 133.9C249.7 134.2 249.8 134.4 249.8 134.6C249.8 135 249.6 135.4 249.3 135.7C249 136 248.6 136.2 248.2 136.2C247.5 136.2 247 135.8 246.6 135.1L245.6 132.8H239L238 135.2C237.7 135.9 237.2 136.2 236.5 136.2C236.1 136.2 235.7 136.1 235.4 135.8C235.1 135.3 235 135 235 134.6ZM240.3 129.7H244.4L242.3 124.8L240.3 129.7Z" fill="#99CC5E"/>
<path d="M257.4 136.201C255.3 136.201 253.5 135.601 251.8 134.401C251.4 134.101 251.2 133.701 251.2 133.201C251.2 132.801 251.3 132.401 251.6 132.101C251.9 131.801 252.3 131.701 252.7 131.701C253 131.701 253.3 131.801 253.6 132.001C254.8 132.901 256.1 133.301 257.4 133.301C258.1 133.301 258.6 133.201 259 132.901C259.4 132.701 259.6 132.301 259.6 131.901C259.6 131.601 259.5 131.401 259.4 131.201C259.2 131.001 259 130.801 258.5 130.601C258.1 130.401 257.4 130.201 256.6 130.001C255.9 129.801 255.4 129.701 254.9 129.501C254.4 129.301 254 129.101 253.6 128.901C253.2 128.701 252.8 128.401 252.6 128.101C252.3 127.801 252.1 127.401 252 127.001C251.8 126.601 251.8 126.001 251.8 125.501C251.8 124.201 252.3 123.101 253.2 122.301C254.2 121.501 255.4 121.101 257 121.101C258.7 121.101 260.3 121.501 261.7 122.401C262.2 122.701 262.4 123.101 262.4 123.701C262.4 124.101 262.3 124.501 262 124.801C261.7 125.101 261.3 125.201 260.9 125.201C260.6 125.201 260.4 125.101 260.1 125.001C259 124.301 258 124.001 257 124.001C256.4 124.001 255.9 124.101 255.6 124.401C255.3 124.601 255.1 125.001 255.1 125.301C255.1 125.801 255.3 126.101 255.7 126.401C256.1 126.601 257 126.901 258.3 127.301C259.1 127.501 259.8 127.701 260.3 128.001C260.8 128.201 261.3 128.501 261.7 128.901C262.1 129.201 262.4 129.701 262.6 130.101C262.8 130.601 262.9 131.101 262.9 131.801C262.9 133.201 262.4 134.401 261.4 135.201C260.4 135.801 259.1 136.201 257.4 136.201Z" fill="#99CC5E"/>
<path d="M268.8 134.401V124.101H265.7C265.3 124.101 264.9 124.001 264.6 123.701C264.3 123.401 264.2 123.101 264.2 122.601C264.2 122.201 264.3 121.801 264.6 121.501C264.9 121.201 265.3 121.101 265.7 121.101H275.2C275.6 121.101 276 121.201 276.3 121.501C276.6 121.801 276.7 122.201 276.7 122.601C276.7 123.001 276.6 123.401 276.3 123.701C276 124.001 275.6 124.101 275.2 124.101H272.1V134.401C272.1 134.901 271.9 135.201 271.6 135.601C271.3 135.901 270.9 136.101 270.4 136.101C269.9 136.101 269.6 135.901 269.2 135.601C269 135.301 268.8 134.901 268.8 134.401Z" fill="#99CC5E"/>
<path d="M279.3 134.4V122.6C279.3 122.1 279.5 121.8 279.8 121.4C280.1 121.1 280.5 120.9 281 120.9C281.5 120.9 281.8 121.1 282.2 121.4C282.5 121.7 282.7 122.1 282.7 122.6V134.4C282.7 134.9 282.5 135.2 282.2 135.6C281.9 135.9 281.5 136.1 281 136.1C280.5 136.1 280.2 135.9 279.8 135.6C279.4 135.3 279.3 134.9 279.3 134.4Z" fill="#99CC5E"/>
<path d="M293.2 136.2C291.8 136.2 290.5 135.9 289.3 135.2C288.1 134.5 287.2 133.6 286.6 132.4C285.9 131.2 285.6 129.9 285.6 128.5C285.6 127.1 285.9 125.8 286.6 124.6C287.2 123.4 288.2 122.5 289.4 121.8C290.6 121.1 291.9 120.8 293.4 120.8C295.3 120.8 297 121.3 298.4 122.3C298.8 122.6 299 123.1 299 123.6C299 124.1 298.8 124.4 298.5 124.7C298.2 125 297.8 125.2 297.4 125.2C297.1 125.2 296.8 125.1 296.4 124.9C295.5 124.2 294.4 123.8 293.4 123.8C292.2 123.8 291.1 124.2 290.3 125.1C289.5 126 289.1 127.1 289.1 128.4C289.1 129.7 289.5 130.8 290.3 131.7C291.1 132.6 292.1 133.1 293.4 133.1C294.1 133.1 294.6 133 295.1 132.8C295.6 132.6 296.1 132.3 296.6 131.9C296.9 131.7 297.2 131.5 297.6 131.5C298 131.5 298.4 131.6 298.7 131.9C299 132.2 299.2 132.6 299.2 133C299.2 133.5 299 133.9 298.7 134.2C298 134.8 297.2 135.3 296.4 135.6C295.3 136.1 294.3 136.2 293.2 136.2Z" fill="#99CC5E"/>
<path d="M318.9 136.2C318.5 136.2 318.1 136 317.8 135.7L316.5 134.5C315.2 135.6 313.7 136.2 312.1 136.2C310.7 136.2 309.5 135.8 308.5 135C307.6 134.2 307.1 133.2 307.1 131.9C307.1 130.1 308.1 128.7 310 127.8C309.3 126.9 309 125.9 309 124.8C309 124.3 309.1 123.8 309.3 123.3C309.5 122.8 309.8 122.4 310.2 122.1C310.6 121.7 311 121.4 311.6 121.2C312.2 121 312.8 120.9 313.5 120.9C314.7 120.9 315.7 121.3 316.5 122C317.3 122.7 317.7 123.6 317.7 124.7C317.7 125.7 317.4 126.4 316.9 127.1C316.4 127.7 315.6 128.2 314.6 128.6L316.6 130.5C317 130 317.3 129.4 317.6 128.9C317.7 128.7 317.8 128.5 318.1 128.4C318.3 128.2 318.6 128.2 318.9 128.2C319.3 128.2 319.6 128.3 319.9 128.6C320.2 128.9 320.3 129.2 320.3 129.6C320.3 129.8 320.2 130.1 320.1 130.3C319.7 131.1 319.2 131.8 318.7 132.5L320.1 133.8C320.4 134.1 320.6 134.5 320.6 134.9C320.6 135.3 320.5 135.7 320.2 135.9C319.7 136 319.3 136.2 318.9 136.2ZM312.6 133.5C313.3 133.5 314.1 133.2 314.8 132.6L312 129.7C311.1 130.2 310.6 130.9 310.6 131.7C310.6 132.2 310.8 132.6 311.2 133C311.5 133.3 312 133.5 312.6 133.5ZM312.9 126.8C313.6 126.5 314.1 126.3 314.4 126C314.7 125.7 314.9 125.3 314.9 124.9C314.9 124.5 314.8 124.1 314.5 123.9C314.2 123.7 313.9 123.5 313.5 123.5C313.1 123.5 312.7 123.6 312.5 123.9C312.2 124.2 312.1 124.5 312.1 125C312.1 125.3 312.2 125.6 312.3 125.9C312.4 126.1 312.6 126.4 312.9 126.8Z" fill="#99CC5E"/>
<path d="M329.4 134.4V122.7C329.4 122.2 329.6 121.9 329.9 121.5C330.2 121.2 330.6 121 331.1 121H335.5C337.3 121 338.6 121.5 339.7 122.4C340.7 123.3 341.2 124.6 341.2 126.1C341.2 127.2 340.9 128.2 340.4 129C339.9 129.8 339.1 130.4 338.2 130.8C337.3 131.2 336.3 131.4 335.2 131.4H332.7V134.4C332.7 134.9 332.5 135.2 332.2 135.6C331.9 135.9 331.5 136.1 331 136.1C330.5 136.1 330.2 135.9 329.8 135.6C329.5 135.3 329.4 134.9 329.4 134.4ZM332.6 128.6H335.2C336 128.6 336.6 128.4 337.1 128C337.6 127.6 337.8 127 337.8 126.4C337.8 125.7 337.6 125.1 337.1 124.7C336.6 124.3 336 124.1 335.2 124.1H332.7V128.6H332.6Z" fill="#99CC5E"/>
<path d="M341.5 134.6C341.5 134.4 341.6 134.2 341.7 133.9L346.9 122.2C347.3 121.3 347.9 120.9 348.8 120.9H349C349.9 120.9 350.5 121.3 350.9 122.2L356.1 133.9C356.2 134.2 356.3 134.4 356.3 134.6C356.3 135 356.1 135.4 355.8 135.7C355.5 136 355.1 136.2 354.7 136.2C354 136.2 353.5 135.8 353.1 135.1L352.1 132.8H345.6L344.6 135.2C344.3 135.9 343.8 136.2 343.1 136.2C342.7 136.2 342.3 136.1 342 135.8C341.6 135.3 341.5 135 341.5 134.6ZM346.7 129.7H350.8L348.7 124.8L346.7 129.7Z" fill="#99CC5E"/>
<path d="M365.1 136.2C363.7 136.2 362.4 135.9 361.2 135.2C360 134.5 359.1 133.6 358.5 132.4C357.8 131.2 357.5 129.9 357.5 128.5C357.5 127.1 357.8 125.8 358.5 124.6C359.1 123.4 360.1 122.5 361.3 121.8C362.5 121.1 363.8 120.8 365.3 120.8C367.2 120.8 368.9 121.3 370.3 122.3C370.7 122.6 370.9 123.1 370.9 123.6C370.9 124.1 370.7 124.4 370.4 124.7C370.1 125 369.7 125.2 369.3 125.2C369 125.2 368.7 125.1 368.3 124.9C367.4 124.2 366.3 123.8 365.3 123.8C364.1 123.8 363 124.2 362.2 125.1C361.4 126 361 127.1 361 128.4C361 129.7 361.4 130.8 362.2 131.7C363 132.6 364 133.1 365.3 133.1C366 133.1 366.5 133 367 132.8C367.5 132.6 368 132.3 368.5 131.9C368.8 131.7 369.1 131.5 369.5 131.5C369.9 131.5 370.3 131.6 370.6 131.9C370.9 132.2 371.1 132.6 371.1 133C371.1 133.5 370.9 133.9 370.6 134.2C369.9 134.8 369.1 135.3 368.3 135.6C367.3 136.1 366.3 136.2 365.1 136.2Z" fill="#99CC5E"/>
<path d="M373.8 134.4V122.6C373.8 122.1 374 121.8 374.3 121.4C374.6 121.1 375 120.9 375.5 120.9C376 120.9 376.3 121.1 376.7 121.4C377 121.7 377.2 122.1 377.2 122.6V127.6L383.2 121.6C383.6 121.2 384.1 121 384.6 121C385 121 385.4 121.1 385.7 121.4C386 121.7 386.1 122.1 386.1 122.5C386.1 122.9 385.9 123.3 385.5 123.7L381.3 127.6L385.9 133.3C386.2 133.7 386.3 134 386.3 134.4C386.3 134.9 386.1 135.2 385.8 135.5C385.5 135.8 385.1 136 384.6 136C384.3 136 384 135.9 383.8 135.8C383.6 135.7 383.4 135.5 383.2 135.2L379 129.6L377.1 131.3V134.3C377.1 134.8 376.9 135.1 376.6 135.5C376.3 135.8 375.9 136 375.4 136C374.9 136 374.6 135.8 374.2 135.5C374 135.3 373.8 134.9 373.8 134.4Z" fill="#99CC5E"/>
<path d="M387.8 134.6C387.8 134.4 387.9 134.2 388 133.9L393.2 122.2C393.6 121.3 394.2 120.9 395.1 120.9H395.3C396.2 120.9 396.8 121.3 397.2 122.2L402.4 133.9C402.5 134.2 402.6 134.4 402.6 134.6C402.6 135 402.4 135.4 402.1 135.7C401.8 136 401.4 136.2 401 136.2C400.3 136.2 399.8 135.8 399.4 135.1L398.4 132.8H391.9L390.9 135.2C390.6 135.9 390.1 136.2 389.4 136.2C389 136.2 388.6 136.1 388.3 135.8C388 135.3 387.8 135 387.8 134.6ZM393.1 129.7H397.2L395.1 124.8L393.1 129.7Z" fill="#99CC5E"/>
<path d="M411.7 136.2C410.2 136.2 408.8 135.9 407.6 135.2C406.4 134.5 405.5 133.6 404.8 132.5C404.1 131.3 403.8 130 403.8 128.6C403.8 127.6 404 126.6 404.4 125.6C404.8 124.7 405.3 123.8 406 123.2C406.7 122.5 407.5 122 408.5 121.6C409.5 121.2 410.5 121 411.6 121C412.7 121 413.6 121.1 414.4 121.4C415.2 121.6 415.9 122 416.7 122.5C417.1 122.8 417.4 123.3 417.4 123.8C417.4 124.3 417.2 124.6 416.9 124.9C416.6 125.2 416.2 125.4 415.8 125.4C415.5 125.4 415.1 125.3 414.8 125.1C414.3 124.8 413.8 124.5 413.3 124.3C412.8 124.1 412.2 124.1 411.5 124.1C410.3 124.1 409.3 124.6 408.5 125.5C407.7 126.4 407.3 127.5 407.3 128.8C407.3 130.2 407.7 131.3 408.6 132.2C409.4 133.1 410.5 133.5 411.8 133.5C413 133.5 414 133.2 414.9 132.6V130.5H412.7C412.3 130.5 412 130.4 411.7 130.1C411.4 129.8 411.3 129.5 411.3 129.1C411.3 128.7 411.4 128.4 411.7 128.1C412 127.8 412.3 127.7 412.7 127.7H416.4C416.9 127.7 417.2 127.9 417.6 128.2C417.9 128.5 418.1 128.9 418.1 129.4V133C418.1 133.9 417.7 134.6 417 135.1C415.3 135.7 413.5 136.2 411.7 136.2Z" fill="#99CC5E"/>
<path d="M421.3 134.4V122.6C421.3 122.1 421.5 121.8 421.8 121.4C422.1 121.1 422.5 120.9 423 120.9C423.5 120.9 423.8 121.1 424.2 121.4C424.5 121.7 424.7 122.1 424.7 122.6V134.4C424.7 134.9 424.5 135.2 424.2 135.6C423.9 135.9 423.5 136.1 423 136.1C422.5 136.1 422.2 135.9 421.8 135.6C421.5 135.3 421.3 134.9 421.3 134.4Z" fill="#99CC5E"/>
<path d="M428.3 134.5V122.7C428.3 122.2 428.5 121.9 428.8 121.5C429.1 121.2 429.5 121 430 121H430.3C430.7 121 431 121.1 431.2 121.2C431.5 121.4 431.7 121.6 432 121.9L438.3 130.2V122.5C438.3 122 438.5 121.7 438.8 121.4C439.1 121.1 439.5 120.9 439.9 120.9C440.4 120.9 440.7 121.1 441 121.4C441.3 121.7 441.5 122.1 441.5 122.5V134.3C441.5 134.8 441.3 135.1 441 135.5C440.7 135.8 440.3 136 439.8 136H439.7C439.3 136 439 135.9 438.8 135.8C438.5 135.6 438.3 135.4 438 135.1L431.5 126.5V134.5C431.5 135 431.3 135.3 431 135.6C430.7 135.9 430.3 136.1 429.9 136.1C429.4 136.1 429.1 135.9 428.8 135.6C428.4 135.3 428.3 134.9 428.3 134.5Z" fill="#99CC5E"/>
<path d="M452.2 136.2C450.7 136.2 449.3 135.9 448.1 135.2C446.9 134.5 446 133.6 445.3 132.5C444.6 131.3 444.3 130 444.3 128.6C444.3 127.6 444.5 126.6 444.9 125.6C445.3 124.7 445.8 123.8 446.5 123.2C447.2 122.5 448 122 449 121.6C450 121.2 451 121 452.1 121C453.2 121 454.1 121.1 454.9 121.4C455.7 121.6 456.4 122 457.2 122.5C457.6 122.8 457.9 123.3 457.9 123.8C457.9 124.3 457.7 124.6 457.4 124.9C457.1 125.2 456.7 125.4 456.3 125.4C456 125.4 455.6 125.3 455.3 125.1C454.8 124.8 454.3 124.5 453.8 124.3C453.3 124.1 452.7 124.1 452 124.1C450.8 124.1 449.8 124.6 449 125.5C448.2 126.4 447.8 127.5 447.8 128.8C447.8 130.2 448.2 131.3 449.1 132.2C449.9 133.1 451 133.5 452.3 133.5C453.5 133.5 454.5 133.2 455.4 132.6V130.5H453.2C452.8 130.5 452.5 130.4 452.2 130.1C451.9 129.8 451.8 129.5 451.8 129.1C451.8 128.7 451.9 128.4 452.2 128.1C452.5 127.8 452.8 127.7 453.2 127.7H456.9C457.4 127.7 457.7 127.9 458.1 128.2C458.4 128.5 458.6 128.9 458.6 129.4V133C458.6 133.9 458.2 134.6 457.5 135.1C455.7 135.7 454 136.2 452.2 136.2Z" fill="#99CC5E"/>
<path d="M478 136H469.7C469.2 136 468.9 135.8 468.5 135.5C468.2 135.2 468 134.8 468 134.3V122.7C468 122.2 468.2 121.9 468.5 121.5C468.8 121.2 469.2 121 469.7 121H477.9C478.3 121 478.7 121.1 478.9 121.4C479.2 121.7 479.3 122 479.3 122.4C479.3 122.8 479.2 123.2 478.9 123.4C478.6 123.7 478.3 123.8 477.9 123.8H471.3V126.8H477C477.4 126.8 477.8 126.9 478 127.2C478.3 127.5 478.4 127.8 478.4 128.2C478.4 128.6 478.3 129 478 129.2C477.7 129.5 477.4 129.6 477 129.6H471.3V132.7H478C478.4 132.7 478.8 132.8 479 133.1C479.3 133.4 479.4 133.7 479.4 134.1C479.4 134.5 479.3 134.9 479 135.1C478.7 135.8 478.4 136 478 136Z" fill="#99CC5E"/>
<path d="M481.4 134.6C481.4 134.2 481.6 133.8 481.9 133.3L485.9 128.4L482.1 123.8C481.8 123.4 481.6 123 481.6 122.6C481.6 122.1 481.8 121.8 482.1 121.5C482.4 121.2 482.8 121 483.2 121C483.5 121 483.8 121.1 484 121.2C484.2 121.3 484.4 121.5 484.7 121.8L487.9 126.1L491.1 121.9C491.3 121.6 491.6 121.4 491.8 121.2C492 121.1 492.3 121 492.7 121C493.1 121 493.4 121.1 493.7 121.4C494 121.7 494.1 122 494.1 122.5C494.1 122.9 493.9 123.3 493.6 123.7L489.8 128.3L493.8 133.2C494.1 133.6 494.3 134 494.3 134.4C494.3 134.9 494.1 135.2 493.8 135.5C493.5 135.8 493.1 136 492.6 136C492.3 136 492 135.9 491.8 135.8C491.6 135.7 491.4 135.5 491.1 135.2L487.6 130.6L484.2 135.1C484 135.4 483.7 135.6 483.5 135.8C483.3 135.9 483 136 482.6 136C482.2 136 481.9 135.9 481.6 135.6C481.5 135.4 481.4 135 481.4 134.6Z" fill="#99CC5E"/>
<path d="M497.3 134.4V122.6C497.3 122.1 497.5 121.8 497.8 121.4C498.1 121.1 498.5 120.9 499 120.9C499.5 120.9 499.8 121.1 500.2 121.4C500.5 121.7 500.7 122.1 500.7 122.6V127H506.7V122.6C506.7 122.1 506.9 121.8 507.2 121.4C507.5 121.1 507.9 120.9 508.4 120.9C508.9 120.9 509.2 121.1 509.6 121.4C509.9 121.7 510.1 122.1 510.1 122.6V134.4C510.1 134.9 509.9 135.2 509.6 135.6C509.3 135.9 508.9 136.1 508.4 136.1C507.9 136.1 507.6 135.9 507.2 135.6C506.9 135.3 506.7 134.9 506.7 134.4V130H500.7V134.5C500.7 135 500.5 135.3 500.2 135.7C499.9 136 499.5 136.2 499 136.2C498.5 136.2 498.2 136 497.8 135.7C497.4 135.3 497.3 134.9 497.3 134.4Z" fill="#99CC5E"/>
<path d="M513.5 134.4V122.6C513.5 122.1 513.7 121.8 514 121.4C514.3 121.1 514.7 120.9 515.2 120.9C515.7 120.9 516 121.1 516.4 121.4C516.7 121.7 516.9 122.1 516.9 122.6V134.4C516.9 134.9 516.7 135.2 516.4 135.6C516.1 135.9 515.7 136.1 515.2 136.1C514.7 136.1 514.4 135.9 514 135.6C513.7 135.3 513.5 134.9 513.5 134.4Z" fill="#99CC5E"/>
<path d="M520.5 134.3V122.7C520.5 122.2 520.7 121.9 521 121.5C521.3 121.2 521.7 121 522.2 121H527.5C529.2 121 530.5 121.4 531.4 122.3C532.1 123 532.4 123.8 532.4 124.8C532.4 126.3 531.7 127.3 530.4 128C531.3 128.3 532 128.8 532.5 129.4C533 130 533.2 130.7 533.2 131.7C533.2 133 532.7 134 531.7 134.7C530.7 135.4 529.3 135.7 527.6 135.7H522.2C521.7 135.7 521.4 135.5 521 135.2C520.7 135.2 520.5 134.8 520.5 134.3ZM523.7 127.1H526.7C528.3 127.1 529.1 126.6 529.1 125.5C529.1 125 528.9 124.6 528.6 124.4C528.2 124.1 527.7 124 527 124H523.8V127.1H523.7ZM523.7 133.1H527.6C528.3 133.1 528.9 133 529.3 132.7C529.7 132.4 529.9 132 529.9 131.5C529.9 130.4 529.1 129.9 527.5 129.9H523.7V133.1Z" fill="#99CC5E"/>
<path d="M535.9 134.4V122.6C535.9 122.1 536.1 121.8 536.4 121.4C536.7 121.1 537.1 120.9 537.6 120.9C538.1 120.9 538.4 121.1 538.8 121.4C539.1 121.7 539.3 122.1 539.3 122.6V134.4C539.3 134.9 539.1 135.2 538.8 135.6C538.5 135.9 538.1 136.1 537.6 136.1C537.1 136.1 536.8 135.9 536.4 135.6C536.1 135.3 535.9 134.9 535.9 134.4Z" fill="#99CC5E"/>
<path d="M546.4 134.401V124.101H543.3C542.9 124.101 542.5 124.001 542.2 123.701C541.9 123.401 541.8 123.101 541.8 122.601C541.8 122.201 541.9 121.801 542.2 121.501C542.5 121.201 542.9 121.101 543.3 121.101H552.8C553.2 121.101 553.6 121.201 553.9 121.501C554.2 121.801 554.3 122.201 554.3 122.601C554.3 123.001 554.2 123.401 553.9 123.701C553.6 124.001 553.2 124.101 552.8 124.101H549.7V134.401C549.7 134.901 549.5 135.201 549.2 135.601C548.9 135.901 548.5 136.101 548 136.101C547.5 136.101 547.2 135.901 546.8 135.601C546.5 135.301 546.4 134.901 546.4 134.401Z" fill="#99CC5E"/>
<path d="M556.8 134.4V122.6C556.8 122.1 557 121.8 557.3 121.4C557.6 121.1 558 120.9 558.5 120.9C559 120.9 559.3 121.1 559.7 121.4C560 121.7 560.2 122.1 560.2 122.6V134.4C560.2 134.9 560 135.2 559.7 135.6C559.4 135.9 559 136.1 558.5 136.1C558 136.1 557.7 135.9 557.3 135.6C557 135.3 556.8 134.9 556.8 134.4Z" fill="#99CC5E"/>
<path d="M574.2 135.6C573.2 136 572.2 136.2 571 136.2C569.9 136.2 568.8 136 567.8 135.6C566.8 135.2 566 134.7 565.3 134C564.6 133.3 564.1 132.5 563.7 131.6C563.3 130.7 563.1 129.7 563.1 128.6C563.1 127.6 563.3 126.6 563.7 125.6C564.1 124.7 564.6 123.8 565.3 123.2C566 122.5 566.8 122 567.8 121.6C568.8 121.2 569.8 121 571 121C572.5 121 573.8 121.3 575 122C576.2 122.7 577.1 123.6 577.8 124.8C578.5 126 578.8 127.2 578.8 128.6C578.8 129.6 578.6 130.6 578.2 131.6C577.8 132.5 577.3 133.4 576.6 134C576 134.6 575.1 135.2 574.2 135.6ZM568.7 132.6C569.4 133 570.2 133.2 571 133.2C571.9 133.2 572.6 133 573.3 132.6C574 132.2 574.5 131.6 574.9 130.9C575.3 130.2 575.5 129.4 575.5 128.6C575.5 127.3 575.1 126.2 574.2 125.3C573.3 124.4 572.3 123.9 571 123.9C570.1 123.9 569.4 124.1 568.7 124.5C568 124.9 567.5 125.5 567.1 126.2C566.7 126.9 566.5 127.7 566.5 128.5C566.5 129.3 566.7 130.1 567.1 130.8C567.5 131.6 568 132.1 568.7 132.6Z" fill="#99CC5E"/>
<path d="M581.8 134.5V122.7C581.8 122.2 582 121.9 582.3 121.5C582.6 121.2 583 121 583.5 121H583.8C584.2 121 584.5 121.1 584.7 121.2C585 121.4 585.2 121.6 585.5 121.9L591.8 130.2V122.5C591.8 122 592 121.7 592.3 121.4C592.6 121.1 593 120.9 593.4 120.9C593.9 120.9 594.2 121.1 594.5 121.4C594.8 121.7 595 122.1 595 122.5V134.3C595 134.8 594.8 135.1 594.5 135.5C594.2 135.8 593.8 136 593.3 136H593.2C592.8 136 592.5 135.9 592.3 135.8C592 135.6 591.8 135.4 591.5 135.1L585 126.5V134.5C585 135 584.8 135.3 584.5 135.6C584.2 135.9 583.8 136.1 583.4 136.1C582.9 136.1 582.6 135.9 582.3 135.6C582 135.3 581.8 134.9 581.8 134.5Z" fill="#99CC5E"/>
<path d="M595 18.6003C595 23.5003 591 27.5003 586.1 27.4003C581.3 27.3003 577.5 23.4003 577.5 18.6003C577.6 13.8003 581.4 10.1003 585.9 9.90025C591 9.60025 595 13.7003 595 18.6003ZM593.9 18.6003C593.9 14.3003 590.4 11.0003 586.4 10.9003C582.1 10.8003 578.6 14.3003 578.6 18.5003C578.6 22.8003 582 26.2003 586.2 26.2003C590.5 26.2003 593.9 22.8003 593.9 18.6003Z" fill="white"/>
<path d="M590.2 17.1C590.2 17.3 590.1 17.4 590.1 17.6C589.8 18.6 589.6 19.6 589.3 20.6C589.3 20.8 589.2 20.9 589.2 21.1C589.2 21.2 589.2 21.2 589.1 21.2C588.8 21.2 588.5 21.2 588.2 21.2C588.1 21.2 588.1 21.2 588.1 21.1C587.9 20.1 587.6 19.2 587.4 18.2C587.3 17.8 587.2 17.5 587.1 17.1C587.1 18.5 587.1 19.8 587.1 21.2C586.8 21.2 586.4 21.2 586.1 21.2C586.1 19.5 586.1 17.7 586.1 16H586.2C586.7 16 587.1 16 587.6 16C587.7 16 587.7 16 587.7 16.1C588 17.2 588.3 18.4 588.6 19.5V19.6C588.6 19.4 588.7 19.3 588.7 19.1C589 18.1 589.2 17.1 589.5 16.1C589.5 16 589.5 16 589.6 16C590.1 16 590.6 16 591.1 16C591.1 16 591.1 16 591.2 16V16.1C591.2 17.8 591.2 19.5 591.2 21.1C591.2 21.2 591.2 21.2 591.1 21.2C590.8 21.2 590.5 21.2 590.2 21.2C590.2 19.8 590.2 18.5 590.2 17.1Z" fill="white"/>
<path d="M585.4 15.9004C585.4 16.2004 585.4 16.5004 585.4 16.8004C584.9 16.8004 584.4 16.8004 583.8 16.8004C583.8 18.3004 583.8 19.7004 583.8 21.2004C583.4 21.2004 583.1 21.2004 582.7 21.2004C582.7 19.7004 582.7 18.3004 582.7 16.8004C582.2 16.8004 581.7 16.8004 581.1 16.8004C581.1 16.5004 581.1 16.2004 581.1 15.9004C582.7 15.9004 584 15.9004 585.4 15.9004Z" fill="white"/>
</svg>
