<?xml version="1.0" encoding="utf-8"?>
<!-- Generator: Adobe Illustrator 27.8.1, SVG Export Plug-In . SVG Version: 6.00 Build 0)  -->
<svg version="1.1" id="Layer_1" xmlns="http://www.w3.org/2000/svg" xmlns:xlink="http://www.w3.org/1999/xlink" x="0px" y="0px"
	 viewBox="0 0 614 146" style="enable-background:new 0 0 614 146;" xml:space="preserve">
<style type="text/css">
	.st0{fill:#34c38f;}
	.st1{fill:#99CC5E;}
</style>
<g>
	<path class="st0" d="M33.4,106.4c-3.9,0-7.4-1.4-10.2-4.2C20.5,99.5,19,96,19,92.1V34.2c0-3.9,1.5-7.4,4.2-10.2
		c2.7-2.7,6.3-4.2,10.2-4.2h21.9c10.3,0,18.6,2.9,24.8,8.6c6.4,5.9,9.6,13.6,9.6,23.1v0.2c0,6.8-1.7,12.8-5.1,17.8
		c-3.4,5-7.9,8.7-13.4,11c-5.2,2.2-11,3.3-17.5,3.3h-6v8.3c0,3.9-1.4,7.4-4.2,10.2C40.8,105,37.3,106.4,33.4,106.4 M54.2,56.8
		c2.4,0,4-0.5,5.1-1.5c1-0.9,1.4-1.8,1.4-3.3v-0.2c0-2.4-0.8-3-1.2-3.4c-1.1-0.9-3-1.4-5.6-1.4h-6.2v9.8H54.2z"/>
	<path class="st0" d="M108.4,105.8c-3.9,0-7.4-1.5-10.2-4.2c-2.7-2.7-4.2-6.3-4.2-10.2V33.6c0-3.9,1.5-7.4,4.2-10.2
		c2.7-2.7,6.3-4.2,10.2-4.2c3.9,0,7.5,1.5,10.2,4.2c2.7,2.8,4.2,6.3,4.2,10.2v44.9h23.6c3.7,0,7.1,1.4,9.7,4c2.6,2.6,3.9,6,3.9,9.7
		c0,3.7-1.4,7.1-4,9.7c-2.6,2.6-5.9,4-9.7,4H108.4z"/>
	<path class="st0" d="M178.7,105.8c-3.9,0-7.4-1.5-10.2-4.2c-2.7-2.7-4.2-6.3-4.2-10.2V34.2c0-3.9,1.5-7.4,4.2-10.2
		c2.7-2.7,6.3-4.2,10.2-4.2h40.6c3.7,0,7.1,1.4,9.6,3.9c2.6,2.6,3.9,5.9,3.9,9.6c0,3.8-1.4,7.1-4,9.6c-2.6,2.5-5.9,3.8-9.5,3.8
		h-26.4v2.3h21.7c3.7,0,7,1.3,9.6,3.9c2.6,2.6,4,5.9,4,9.6c0,3.8-1.4,7.1-4,9.6c-2.6,2.5-5.9,3.8-9.6,3.8h-21.7v2.8h27
		c3.7,0,7.1,1.4,9.6,4c2.6,2.6,3.9,5.9,3.9,9.6c0,3.7-1.4,7.1-4,9.6c-2.6,2.5-5.9,3.8-9.6,3.8H178.7z"/>
	<path class="st0" d="M343.6,106.4c-3.9,0-7.4-1.4-10.2-4.2c-2.8-2.7-4.2-6.3-4.2-10.2V34.2c0-3.9,1.5-7.4,4.2-10.2
		c2.7-2.7,6.3-4.2,10.2-4.2h21.9c10.3,0,18.6,2.9,24.8,8.6c6.4,5.9,9.6,13.6,9.6,23.1v0.2c0,6.8-1.7,12.8-5.1,17.8
		c-3.4,5-7.9,8.7-13.4,11c-5.2,2.2-11,3.3-17.5,3.3h-6v8.3c0,3.9-1.4,7.4-4.2,10.2C351.1,105,347.6,106.4,343.6,106.4 M364.5,56.8
		c2.3,0,4-0.5,5.1-1.5c1-0.9,1.4-1.8,1.4-3.3v-0.2c0-2.4-0.8-3-1.2-3.4c-1.1-0.9-3-1.4-5.6-1.4H358v9.8H364.5z"/>
	<path class="st1" d="M269.7,50.6L269.7,50.6c6.4-6.4,16.8-6.4,23.2,0l27.2,27.2c6.4,6.4,6.4,16.8,0,23.2c-6.4,6.4-16.8,6.4-23.2,0
		l-27.2-27.2C263.3,67.4,263.3,57,269.7,50.6"/>
	<path class="st1" d="M293,73.8L293,73.8c-6.4,6.4-16.8,6.4-23.2,0l-27.2-27.2c-6.4-6.4-6.4-16.8,0-23.2c6.4-6.4,16.8-6.4,23.2,0
		L293,50.6C299.4,57,299.4,67.4,293,73.8"/>
	<path class="st0" d="M269.7,73.8L269.7,73.8c-6.4-6.4-6.4-16.8,0-23.2l27.2-27.2c6.4-6.4,16.8-6.4,23.2,0c6.4,6.4,6.4,16.8,0,23.2
		l-27.2,27.2C286.5,80.2,276.1,80.2,269.7,73.8"/>
	<path class="st0" d="M292.9,97l-23.2-23.2L293,50.5l11.6,11.6l-11.6,11.6C286.5,80.2,286.5,90.6,292.9,97"/>
	<path class="st0" d="M293,50.5L293,50.5c6.4,6.4,6.4,16.8,0,23.2L265.8,101c-6.4,6.4-16.8,6.4-23.2,0c-6.4-6.4-6.4-16.8,0-23.2
		l27.2-27.2C276.1,44.1,286.5,44.1,293,50.5"/>
	<path class="st0" d="M269.7,27.3L293,50.6l-23.3,23.3l-11.6-11.6l11.6-11.6C276.1,44.1,276.1,33.7,269.7,27.3"/>
	<path class="st1" d="M449.6,72.6V53.2c0-0.7,0.3-1.4,0.8-1.9c0.5-0.5,1.2-0.8,1.9-0.8c0.7,0,1.4,0.3,1.9,0.8
		c0.5,0.5,0.8,1.2,0.8,1.9v19.4c0,0.7-0.3,1.4-0.8,1.9c-0.5,0.5-1.2,0.8-1.9,0.8c-0.7,0-1.4-0.3-1.9-0.8
		C449.9,74,449.6,73.3,449.6,72.6"/>
	<path class="st1" d="M461,72.6V53.3c0-0.7,0.3-1.4,0.8-1.9c0.5-0.5,1.2-0.8,1.9-0.8h0.5c0.6,0,1.1,0.1,1.5,0.4
		c0.4,0.3,0.8,0.6,1.2,1.2l10.3,13.5V53.2c0-0.7,0.3-1.4,0.8-1.9c0.5-0.5,1.1-0.8,1.9-0.8c0.7,0,1.4,0.3,1.9,0.8
		c0.5,0.5,0.8,1.1,0.8,1.9v19.3c0,0.7-0.3,1.4-0.8,1.9c-0.5,0.5-1.2,0.8-1.9,0.8h-0.2c-0.6,0-1.1-0.1-1.5-0.4
		c-0.4-0.3-0.8-0.6-1.2-1.2l-10.7-14v13c0,0.7-0.3,1.4-0.8,1.9c-0.5,0.5-1.1,0.8-1.9,0.8c-0.7,0-1.4-0.3-1.9-0.8
		C461.3,74,461,73.4,461,72.6"/>
	<path class="st1" d="M488.5,72.4V53.4c0-0.7,0.3-1.4,0.8-1.9c0.5-0.5,1.2-0.8,1.9-0.8h6.8c1.9,0,3.6,0.3,5.2,0.9
		c1.6,0.6,3,1.5,4.1,2.5c1.1,1.1,2,2.4,2.6,3.8c0.6,1.5,0.9,3.1,0.9,4.8v0.1c0,1.7-0.3,3.3-0.9,4.8c-0.6,1.5-1.5,2.8-2.6,3.9
		c-1.1,1.1-2.5,1.9-4.1,2.6c-1.6,0.6-3.4,0.9-5.2,0.9h-6.8c-0.7,0-1.4-0.3-1.9-0.8C488.7,73.8,488.5,73.1,488.5,72.4 M493.8,70.2
		h4.1c2.2,0,3.9-0.7,5.3-2c1.4-1.3,2-3.1,2-5.2v-0.1c0-2.2-0.7-3.9-2-5.3c-1.4-1.4-3.1-2-5.3-2h-4.1V70.2z"/>
	<path class="st1" d="M515.8,72.6V53.2c0-0.7,0.3-1.4,0.8-1.9c0.5-0.5,1.2-0.8,1.9-0.8c0.7,0,1.4,0.3,1.9,0.8
		c0.5,0.5,0.8,1.2,0.8,1.9v19.4c0,0.7-0.3,1.4-0.8,1.9c-0.5,0.5-1.2,0.8-1.9,0.8c-0.7,0-1.4-0.3-1.9-0.8
		C516.1,74,515.8,73.3,515.8,72.6"/>
	<path class="st1" d="M525.6,72.8c0-0.3,0.1-0.7,0.3-1.2l8.5-19.1c0.6-1.4,1.7-2.1,3.1-2.1h0.3c1.4,0,2.5,0.7,3.1,2.1l8.5,19.1
		c0.2,0.5,0.3,0.8,0.3,1.1c0,0.7-0.2,1.3-0.7,1.8c-0.5,0.5-1.1,0.7-1.8,0.7c-1.1,0-2-0.6-2.6-1.8l-1.6-3.8h-10.7l-1.7,4
		c-0.5,1.1-1.3,1.7-2.5,1.7c-0.7,0-1.3-0.2-1.7-0.7C525.8,74.1,525.6,73.5,525.6,72.8 M534.2,64.9h6.7l-3.4-8L534.2,64.9z"/>
	<path class="st0" d="M449.5,79.6c0,0,0.1,0,0.1,0L449.5,79.6z"/>
	<path class="st0" d="M591.6,45.6c-2.3-5.4-5.4-10.1-9.4-14.1c-4-4-8.9-7.2-14.5-9.5c-5.6-2.3-11.6-3.4-17.8-3.5v0H449.4v0
		c-6.3,0-12.2,1.2-17.8,3.5c-5.6,2.3-10.5,5.5-14.5,9.5c-4,4-7.1,8.7-9.4,14.1c-2.3,5.4-3.4,11.2-3.4,17.2V63c0,6,1.1,11.7,3.4,17.1
		c2.3,5.4,5.4,10.1,9.3,14.1c4,4,8.8,7.2,14.5,9.5c5.6,2.3,11.6,3.4,18,3.4h100.4h0c6.3,0,12.4-1.2,18-3.4
		c5.6-2.3,10.5-5.5,14.5-9.5c3.9-4,7.1-8.7,9.3-14.1C593.9,74.7,595,69,595,63v-0.2C595,56.8,593.8,51,591.6,45.6 M565.5,62.8
		c0,3.1-0.7,5.9-2.1,8.5c-1.4,2.5-3.2,4.5-5.7,6c-2.4,1.5-5,2.2-8,2.2v0H449.6h-0.1v0c-3,0-5.6-0.7-8-2.2c-2.5-1.5-4.3-3.5-5.7-6
		c-1.4-2.6-2.1-5.4-2.1-8.5v-0.2c0-3.1,0.7-5.9,2-8.5c1.3-2.5,3.1-4.4,5.5-5.8c2.4-1.5,5.1-2.2,8.1-2.2h0.1h100.2h0
		c3.1,0,5.7,0.7,8.1,2.2c2.4,1.5,4.2,3.4,5.5,5.8c1.4,2.6,2,5.4,2,8.5V62.8z"/>
	<path class="st1" d="M19,134.4v-11.8c0-0.5,0.2-0.8,0.5-1.2c0.3-0.3,0.7-0.5,1.2-0.5c0.5,0,0.8,0.2,1.2,0.5
		c0.3,0.3,0.5,0.7,0.5,1.2v11.8c0,0.5-0.2,0.8-0.5,1.2c-0.3,0.3-0.7,0.5-1.2,0.5c-0.5,0-0.8-0.2-1.2-0.5
		C19.2,135.3,19,134.9,19,134.4"/>
	<path class="st1" d="M26,134.5v-11.8c0-0.5,0.2-0.8,0.5-1.2c0.3-0.3,0.7-0.5,1.2-0.5h0.3c0.4,0,0.7,0.1,0.9,0.2
		c0.3,0.2,0.5,0.4,0.8,0.7l6.3,8.3v-7.7c0-0.5,0.2-0.8,0.5-1.1c0.3-0.3,0.7-0.5,1.1-0.5c0.5,0,0.8,0.2,1.1,0.5
		c0.3,0.3,0.5,0.7,0.5,1.1v11.8c0,0.5-0.2,0.8-0.5,1.2c-0.3,0.3-0.7,0.5-1.2,0.5h-0.1c-0.4,0-0.7-0.1-0.9-0.2
		c-0.3-0.2-0.5-0.4-0.8-0.7l-6.5-8.6v8c0,0.5-0.2,0.8-0.5,1.1c-0.3,0.3-0.7,0.5-1.1,0.5c-0.5,0-0.8-0.2-1.1-0.5
		C26.1,135.3,26,134.9,26,134.5"/>
	<path class="st1" d="M46.2,134.4v-10.3H43c-0.4,0-0.8-0.1-1.1-0.4c-0.3-0.3-0.4-0.6-0.4-1.1c0-0.4,0.1-0.8,0.4-1.1
		c0.3-0.3,0.7-0.4,1.1-0.4h9.5c0.4,0,0.8,0.1,1.1,0.4c0.3,0.3,0.4,0.7,0.4,1.1c0,0.4-0.1,0.8-0.4,1.1c-0.3,0.3-0.7,0.4-1.1,0.4h-3.1
		v10.3c0,0.5-0.2,0.8-0.5,1.2c-0.3,0.3-0.7,0.5-1.2,0.5c-0.5,0-0.8-0.2-1.2-0.5C46.3,135.3,46.2,134.9,46.2,134.4"/>
	<path class="st1" d="M66.4,136h-8.3c-0.5,0-0.8-0.2-1.2-0.5c-0.3-0.3-0.5-0.7-0.5-1.2v-11.6c0-0.5,0.2-0.8,0.5-1.2
		c0.3-0.3,0.7-0.5,1.2-0.5h8.2c0.4,0,0.8,0.1,1,0.4c0.3,0.3,0.4,0.6,0.4,1c0,0.4-0.1,0.8-0.4,1c-0.3,0.3-0.6,0.4-1,0.4h-6.6v3h5.7
		c0.4,0,0.8,0.1,1,0.4c0.3,0.3,0.4,0.6,0.4,1c0,0.4-0.1,0.8-0.4,1c-0.3,0.3-0.6,0.4-1,0.4h-5.7v3.1h6.7c0.4,0,0.8,0.1,1,0.4
		c0.3,0.3,0.4,0.6,0.4,1c0,0.4-0.1,0.8-0.4,1C67.2,135.8,66.8,136,66.4,136"/>
	<path class="st1" d="M70.7,134.4v-11.7c0-0.5,0.2-0.8,0.5-1.2c0.3-0.3,0.7-0.5,1.2-0.5h5.1c1.9,0,3.3,0.5,4.3,1.5
		c0.8,0.8,1.3,2,1.3,3.4v0.1c0,2.2-1,3.7-3,4.5l2.3,2.8c0.4,0.4,0.5,0.9,0.5,1.3c0,0.4-0.2,0.8-0.5,1.1c-0.3,0.3-0.7,0.4-1.1,0.4
		c-0.6,0-1.1-0.3-1.6-0.8l-3.2-4h-2.6v3.3c0,0.5-0.2,0.8-0.5,1.2c-0.3,0.3-0.7,0.5-1.2,0.5c-0.5,0-0.8-0.2-1.2-0.5
		C70.8,135.3,70.7,134.9,70.7,134.4 M73.9,128.3h3.3c0.8,0,1.4-0.2,1.8-0.6c0.4-0.4,0.7-0.9,0.7-1.5v0c0-0.7-0.2-1.2-0.7-1.6
		c-0.4-0.4-1.1-0.5-1.9-0.5h-3.3V128.3z"/>
	<path class="st1" d="M86,134.5v-11.8c0-0.5,0.2-0.8,0.5-1.2c0.3-0.3,0.7-0.5,1.2-0.5H88c0.4,0,0.7,0.1,0.9,0.2
		c0.3,0.2,0.5,0.4,0.8,0.7l6.3,8.3v-7.7c0-0.5,0.2-0.8,0.5-1.1c0.3-0.3,0.7-0.5,1.1-0.5s0.8,0.2,1.1,0.5c0.3,0.3,0.5,0.7,0.5,1.1
		v11.8c0,0.5-0.2,0.8-0.5,1.2c-0.3,0.3-0.7,0.5-1.2,0.5h-0.1c-0.4,0-0.7-0.1-0.9-0.2c-0.3-0.2-0.5-0.4-0.8-0.7l-6.5-8.6v8
		c0,0.5-0.2,0.8-0.5,1.1c-0.3,0.3-0.7,0.5-1.1,0.5c-0.5,0-0.8-0.2-1.1-0.5C86.2,135.3,86,134.9,86,134.5"/>
	<path class="st1" d="M101.7,134.6c0-0.2,0.1-0.4,0.2-0.7l5.2-11.7c0.4-0.9,1-1.3,1.9-1.3h0.2c0.9,0,1.5,0.4,1.9,1.3l5.2,11.7
		c0.1,0.3,0.2,0.5,0.2,0.7c0,0.4-0.2,0.8-0.5,1.1c-0.3,0.3-0.7,0.5-1.1,0.5c-0.7,0-1.2-0.4-1.6-1.1l-1-2.3h-6.5l-1,2.4
		c-0.3,0.7-0.8,1-1.5,1c-0.4,0-0.8-0.1-1.1-0.4C101.9,135.3,101.7,135,101.7,134.6 M107,129.7h4.1l-2.1-4.9L107,129.7z"/>
	<path class="st1" d="M120.8,134.4v-10.3h-3.1c-0.4,0-0.8-0.1-1.1-0.4c-0.3-0.3-0.4-0.6-0.4-1.1c0-0.4,0.1-0.8,0.4-1.1
		c0.3-0.3,0.7-0.4,1.1-0.4h9.5c0.4,0,0.8,0.1,1.1,0.4c0.3,0.3,0.4,0.7,0.4,1.1c0,0.4-0.1,0.8-0.4,1.1c-0.3,0.3-0.7,0.4-1.1,0.4h-3.1
		v10.3c0,0.5-0.2,0.8-0.5,1.2c-0.3,0.3-0.7,0.5-1.2,0.5c-0.5,0-0.8-0.2-1.2-0.5C121,135.3,120.8,134.9,120.8,134.4"/>
	<path class="st1" d="M131.3,134.4v-11.8c0-0.5,0.2-0.8,0.5-1.2c0.3-0.3,0.7-0.5,1.2-0.5c0.5,0,0.8,0.2,1.2,0.5
		c0.3,0.3,0.5,0.7,0.5,1.2v11.8c0,0.5-0.2,0.8-0.5,1.2c-0.3,0.3-0.7,0.5-1.2,0.5c-0.5,0-0.8-0.2-1.2-0.5
		C131.4,135.3,131.3,134.9,131.3,134.4"/>
	<path class="st1" d="M148.6,135.6c-1,0.4-2,0.6-3.2,0.6c-1.1,0-2.2-0.2-3.2-0.6c-1-0.4-1.8-0.9-2.5-1.6c-0.7-0.7-1.2-1.5-1.6-2.4
		c-0.4-0.9-0.6-1.9-0.6-3v0c0-1,0.2-2,0.6-3c0.4-0.9,0.9-1.8,1.6-2.4c0.7-0.7,1.5-1.2,2.5-1.6c1-0.4,2-0.6,3.2-0.6
		c1.5,0,2.8,0.3,4,1c1.2,0.7,2.1,1.6,2.8,2.8c0.7,1.2,1,2.4,1,3.8v0c0,1-0.2,2-0.6,3c-0.4,0.9-0.9,1.8-1.6,2.4
		C150.4,134.6,149.6,135.2,148.6,135.6 M143.2,132.6c0.7,0.4,1.5,0.6,2.3,0.6c0.9,0,1.6-0.2,2.3-0.6c0.7-0.4,1.2-1,1.6-1.7
		c0.4-0.7,0.6-1.5,0.6-2.3v0c0-1.3-0.4-2.4-1.3-3.3c-0.9-0.9-1.9-1.4-3.2-1.4c-0.9,0-1.6,0.2-2.3,0.6c-0.7,0.4-1.2,1-1.6,1.7
		c-0.4,0.7-0.6,1.5-0.6,2.3v0c0,0.8,0.2,1.6,0.6,2.3C142,131.6,142.5,132.1,143.2,132.6z"/>
	<path class="st1" d="M156.3,134.5v-11.8c0-0.5,0.2-0.8,0.5-1.2c0.3-0.3,0.7-0.5,1.2-0.5h0.3c0.4,0,0.7,0.1,0.9,0.2
		c0.3,0.2,0.5,0.4,0.8,0.7l6.3,8.3v-7.7c0-0.5,0.2-0.8,0.5-1.1c0.3-0.3,0.7-0.5,1.1-0.5c0.5,0,0.8,0.2,1.1,0.5
		c0.3,0.3,0.5,0.7,0.5,1.1v11.8c0,0.5-0.2,0.8-0.5,1.2c-0.3,0.3-0.7,0.5-1.2,0.5h-0.1c-0.4,0-0.7-0.1-0.9-0.2
		c-0.3-0.2-0.5-0.4-0.8-0.7l-6.5-8.6v8c0,0.5-0.2,0.8-0.5,1.1c-0.3,0.3-0.7,0.5-1.1,0.5c-0.5,0-0.8-0.2-1.1-0.5
		C156.4,135.3,156.3,134.9,156.3,134.5"/>
	<path class="st1" d="M172,134.6c0-0.2,0.1-0.4,0.2-0.7l5.2-11.7c0.4-0.9,1-1.3,1.9-1.3h0.2c0.9,0,1.5,0.4,1.9,1.3l5.2,11.7
		c0.1,0.3,0.2,0.5,0.2,0.7c0,0.4-0.2,0.8-0.5,1.1c-0.3,0.3-0.7,0.5-1.1,0.5c-0.7,0-1.2-0.4-1.6-1.1l-1-2.3H176l-1,2.4
		c-0.3,0.7-0.8,1-1.5,1c-0.4,0-0.8-0.1-1.1-0.4C172.1,135.3,172,135,172,134.6 M177.3,129.7h4.1l-2.1-4.9L177.3,129.7z"/>
	<path class="st1" d="M189.2,134.3v-11.7c0-0.5,0.2-0.8,0.5-1.2c0.3-0.3,0.7-0.5,1.2-0.5c0.5,0,0.8,0.2,1.2,0.5
		c0.3,0.3,0.5,0.7,0.5,1.2V133h6c0.4,0,0.8,0.1,1.1,0.4c0.3,0.3,0.4,0.6,0.4,1.1c0,0.4-0.1,0.8-0.4,1.1c-0.3,0.3-0.6,0.4-1.1,0.4
		h-7.7c-0.5,0-0.8-0.2-1.2-0.5C189.4,135.2,189.2,134.8,189.2,134.3"/>
	<path class="st1" d="M208.7,134.4v-11.7c0-0.5,0.2-0.8,0.5-1.2c0.3-0.3,0.7-0.5,1.2-0.5h4.4c1.8,0,3.1,0.5,4.2,1.4
		c1,0.9,1.5,2.2,1.5,3.7v0c0,1.1-0.3,2.1-0.8,2.9c-0.5,0.8-1.3,1.4-2.2,1.8c-0.9,0.4-1.9,0.6-3,0.6H212v3c0,0.5-0.2,0.8-0.5,1.2
		c-0.3,0.3-0.7,0.5-1.2,0.5c-0.5,0-0.8-0.2-1.2-0.5C208.9,135.3,208.7,134.9,208.7,134.4 M212,128.6h2.6c0.8,0,1.4-0.2,1.9-0.6
		c0.5-0.4,0.7-1,0.7-1.6v0c0-0.7-0.2-1.3-0.7-1.7c-0.5-0.4-1.1-0.6-1.9-0.6H212V128.6z"/>
	<path class="st1" d="M222.9,134.3v-11.7c0-0.5,0.2-0.8,0.5-1.2c0.3-0.3,0.7-0.5,1.2-0.5c0.5,0,0.8,0.2,1.2,0.5
		c0.3,0.3,0.5,0.7,0.5,1.2V133h6c0.4,0,0.8,0.1,1.1,0.4c0.3,0.3,0.4,0.6,0.4,1.1c0,0.4-0.1,0.8-0.4,1.1c-0.3,0.3-0.6,0.4-1.1,0.4
		h-7.7c-0.5,0-0.8-0.2-1.2-0.5C223,135.2,222.9,134.8,222.9,134.3"/>
	<path class="st1" d="M235,134.6c0-0.2,0.1-0.4,0.2-0.7l5.2-11.7c0.4-0.9,1-1.3,1.9-1.3h0.2c0.9,0,1.5,0.4,1.9,1.3l5.2,11.7
		c0.1,0.3,0.2,0.5,0.2,0.7c0,0.4-0.2,0.8-0.5,1.1c-0.3,0.3-0.7,0.5-1.1,0.5c-0.7,0-1.2-0.4-1.6-1.1l-1-2.3H239l-1,2.4
		c-0.3,0.7-0.8,1-1.5,1c-0.4,0-0.8-0.1-1.1-0.4C235.1,135.3,235,135,235,134.6 M240.3,129.7h4.1l-2.1-4.9L240.3,129.7z"/>
	<path class="st1" d="M257.4,136.2c-2.1,0-3.9-0.6-5.6-1.8c-0.4-0.3-0.6-0.7-0.6-1.2c0-0.4,0.1-0.8,0.4-1.1c0.3-0.3,0.7-0.4,1.1-0.4
		c0.3,0,0.6,0.1,0.9,0.3c1.2,0.9,2.5,1.3,3.8,1.3c0.7,0,1.2-0.1,1.6-0.4c0.4-0.2,0.6-0.6,0.6-1v0c0-0.3-0.1-0.5-0.2-0.7
		c-0.2-0.2-0.4-0.4-0.9-0.6c-0.4-0.2-1.1-0.4-1.9-0.6c-0.7-0.2-1.2-0.3-1.7-0.5c-0.5-0.2-0.9-0.4-1.3-0.6c-0.4-0.2-0.8-0.5-1-0.8
		c-0.3-0.3-0.5-0.7-0.6-1.1c-0.2-0.4-0.2-1-0.2-1.5v0c0-1.3,0.5-2.4,1.4-3.2c1-0.8,2.2-1.2,3.8-1.2c1.7,0,3.3,0.4,4.7,1.3
		c0.5,0.3,0.7,0.7,0.7,1.3c0,0.4-0.1,0.8-0.4,1.1c-0.3,0.3-0.7,0.4-1.1,0.4c-0.3,0-0.5-0.1-0.8-0.2c-1.1-0.7-2.1-1-3.1-1
		c-0.6,0-1.1,0.1-1.4,0.4c-0.3,0.2-0.5,0.6-0.5,0.9v0c0,0.5,0.2,0.8,0.6,1.1c0.4,0.2,1.3,0.5,2.6,0.9c0.8,0.2,1.5,0.4,2,0.7
		c0.5,0.2,1,0.5,1.4,0.9c0.4,0.3,0.7,0.8,0.9,1.2c0.2,0.5,0.3,1,0.3,1.7v0c0,1.4-0.5,2.6-1.5,3.4
		C260.4,135.8,259.1,136.2,257.4,136.2"/>
	<path class="st1" d="M268.8,134.4v-10.3h-3.1c-0.4,0-0.8-0.1-1.1-0.4c-0.3-0.3-0.4-0.6-0.4-1.1c0-0.4,0.1-0.8,0.4-1.1
		c0.3-0.3,0.7-0.4,1.1-0.4h9.5c0.4,0,0.8,0.1,1.1,0.4c0.3,0.3,0.4,0.7,0.4,1.1c0,0.4-0.1,0.8-0.4,1.1c-0.3,0.3-0.7,0.4-1.1,0.4h-3.1
		v10.3c0,0.5-0.2,0.8-0.5,1.2c-0.3,0.3-0.7,0.5-1.2,0.5c-0.5,0-0.8-0.2-1.2-0.5C269,135.3,268.8,134.9,268.8,134.4"/>
	<path class="st1" d="M279.3,134.4v-11.8c0-0.5,0.2-0.8,0.5-1.2c0.3-0.3,0.7-0.5,1.2-0.5s0.8,0.2,1.2,0.5c0.3,0.3,0.5,0.7,0.5,1.2
		v11.8c0,0.5-0.2,0.8-0.5,1.2c-0.3,0.3-0.7,0.5-1.2,0.5s-0.8-0.2-1.2-0.5C279.4,135.3,279.3,134.9,279.3,134.4"/>
	<path class="st1" d="M293.2,136.2c-1.4,0-2.7-0.3-3.9-1c-1.2-0.7-2.1-1.6-2.7-2.8c-0.7-1.2-1-2.5-1-3.9v0c0-1.4,0.3-2.7,1-3.9
		c0.6-1.2,1.6-2.1,2.8-2.8c1.2-0.7,2.5-1,4-1c1.9,0,3.6,0.5,5,1.5c0.4,0.3,0.6,0.8,0.6,1.3c0,0.5-0.2,0.8-0.5,1.1
		c-0.3,0.3-0.7,0.5-1.1,0.5c-0.3,0-0.6-0.1-1-0.3c-0.9-0.7-2-1.1-3-1.1c-1.2,0-2.3,0.4-3.1,1.3c-0.8,0.9-1.2,2-1.2,3.3v0
		c0,1.3,0.4,2.4,1.2,3.3c0.8,0.9,1.8,1.4,3.1,1.4c0.7,0,1.2-0.1,1.7-0.3c0.5-0.2,1-0.5,1.5-0.9c0.3-0.2,0.6-0.4,1-0.4
		c0.4,0,0.8,0.1,1.1,0.4c0.3,0.3,0.5,0.7,0.5,1.1c0,0.5-0.2,0.9-0.5,1.2c-0.7,0.6-1.5,1.1-2.3,1.4
		C295.3,136.1,294.3,136.2,293.2,136.2"/>
	<path class="st1" d="M318.9,136.2c-0.4,0-0.8-0.2-1.1-0.5l-1.3-1.2c-1.3,1.1-2.8,1.7-4.4,1.7c-1.4,0-2.6-0.4-3.6-1.2
		c-0.9-0.8-1.4-1.8-1.4-3.1v0c0-1.8,1-3.2,2.9-4.1c-0.7-0.9-1-1.9-1-3v0c0-0.5,0.1-1,0.3-1.5c0.2-0.5,0.5-0.9,0.9-1.2
		c0.4-0.4,0.8-0.7,1.4-0.9c0.6-0.2,1.2-0.3,1.9-0.3c1.2,0,2.2,0.4,3,1.1c0.8,0.7,1.2,1.6,1.2,2.7v0c0,1-0.3,1.7-0.8,2.4
		c-0.5,0.6-1.3,1.1-2.3,1.5l2,1.9c0.4-0.5,0.7-1.1,1-1.6c0.1-0.2,0.2-0.4,0.5-0.5c0.2-0.2,0.5-0.2,0.8-0.2c0.4,0,0.7,0.1,1,0.4
		c0.3,0.3,0.4,0.6,0.4,1c0,0.2-0.1,0.5-0.2,0.7c-0.4,0.8-0.9,1.5-1.4,2.2l1.4,1.3c0.3,0.3,0.5,0.7,0.5,1.1c0,0.4-0.1,0.8-0.4,1
		C319.7,136,319.3,136.2,318.9,136.2 M312.6,133.5c0.7,0,1.5-0.3,2.2-0.9l-2.8-2.9c-0.9,0.5-1.4,1.2-1.4,2v0c0,0.5,0.2,0.9,0.6,1.3
		C311.5,133.3,312,133.5,312.6,133.5z M312.9,126.8c0.7-0.3,1.2-0.5,1.5-0.8c0.3-0.3,0.5-0.7,0.5-1.1v0c0-0.4-0.1-0.8-0.4-1
		c-0.3-0.2-0.6-0.4-1-0.4c-0.4,0-0.8,0.1-1,0.4c-0.3,0.3-0.4,0.6-0.4,1.1v0c0,0.3,0.1,0.6,0.2,0.9
		C312.4,126.1,312.6,126.4,312.9,126.8z"/>
	<path class="st1" d="M329.4,134.4v-11.7c0-0.5,0.2-0.8,0.5-1.2c0.3-0.3,0.7-0.5,1.2-0.5h4.4c1.8,0,3.1,0.5,4.2,1.4
		c1,0.9,1.5,2.2,1.5,3.7v0c0,1.1-0.3,2.1-0.8,2.9c-0.5,0.8-1.3,1.4-2.2,1.8c-0.9,0.4-1.9,0.6-3,0.6h-2.5v3c0,0.5-0.2,0.8-0.5,1.2
		c-0.3,0.3-0.7,0.5-1.2,0.5c-0.5,0-0.8-0.2-1.2-0.5C329.5,135.3,329.4,134.9,329.4,134.4 M332.6,128.6h2.6c0.8,0,1.4-0.2,1.9-0.6
		c0.5-0.4,0.7-1,0.7-1.6v0c0-0.7-0.2-1.3-0.7-1.7c-0.5-0.4-1.1-0.6-1.9-0.6h-2.5V128.6z"/>
	<path class="st1" d="M341.5,134.6c0-0.2,0.1-0.4,0.2-0.7l5.2-11.7c0.4-0.9,1-1.3,1.9-1.3h0.2c0.9,0,1.5,0.4,1.9,1.3l5.2,11.7
		c0.1,0.3,0.2,0.5,0.2,0.7c0,0.4-0.2,0.8-0.5,1.1c-0.3,0.3-0.7,0.5-1.1,0.5c-0.7,0-1.2-0.4-1.6-1.1l-1-2.3h-6.5l-1,2.4
		c-0.3,0.7-0.8,1-1.5,1c-0.4,0-0.8-0.1-1.1-0.4C341.6,135.3,341.5,135,341.5,134.6 M346.7,129.7h4.1l-2.1-4.9L346.7,129.7z"/>
	<path class="st1" d="M365.1,136.2c-1.4,0-2.7-0.3-3.9-1c-1.2-0.7-2.1-1.6-2.7-2.8c-0.7-1.2-1-2.5-1-3.9v0c0-1.4,0.3-2.7,1-3.9
		c0.6-1.2,1.6-2.1,2.8-2.8c1.2-0.7,2.5-1,4-1c1.9,0,3.6,0.5,5,1.5c0.4,0.3,0.6,0.8,0.6,1.3c0,0.5-0.2,0.8-0.5,1.1
		c-0.3,0.3-0.7,0.5-1.1,0.5c-0.3,0-0.6-0.1-1-0.3c-0.9-0.7-2-1.1-3-1.1c-1.2,0-2.3,0.4-3.1,1.3c-0.8,0.9-1.2,2-1.2,3.3v0
		c0,1.3,0.4,2.4,1.2,3.3c0.8,0.9,1.8,1.4,3.1,1.4c0.7,0,1.2-0.1,1.7-0.3c0.5-0.2,1-0.5,1.5-0.9c0.3-0.2,0.6-0.4,1-0.4
		c0.4,0,0.8,0.1,1.1,0.4c0.3,0.3,0.5,0.7,0.5,1.1c0,0.5-0.2,0.9-0.5,1.2c-0.7,0.6-1.5,1.1-2.3,1.4
		C367.3,136.1,366.3,136.2,365.1,136.2"/>
	<path class="st1" d="M373.8,134.4v-11.8c0-0.5,0.2-0.8,0.5-1.2c0.3-0.3,0.7-0.5,1.2-0.5c0.5,0,0.8,0.2,1.2,0.5
		c0.3,0.3,0.5,0.7,0.5,1.2v5l6-6c0.4-0.4,0.9-0.6,1.4-0.6c0.4,0,0.8,0.1,1.1,0.4c0.3,0.3,0.4,0.7,0.4,1.1c0,0.4-0.2,0.8-0.6,1.2
		l-4.2,3.9l4.6,5.7c0.3,0.4,0.4,0.7,0.4,1.1c0,0.5-0.2,0.8-0.5,1.1c-0.3,0.3-0.7,0.5-1.2,0.5c-0.3,0-0.6-0.1-0.8-0.2
		c-0.2-0.1-0.4-0.3-0.6-0.6l-4.2-5.6l-1.9,1.7v3c0,0.5-0.2,0.8-0.5,1.2c-0.3,0.3-0.7,0.5-1.2,0.5c-0.5,0-0.8-0.2-1.2-0.5
		C374,135.3,373.8,134.9,373.8,134.4"/>
	<path class="st1" d="M387.8,134.6c0-0.2,0.1-0.4,0.2-0.7l5.2-11.7c0.4-0.9,1-1.3,1.9-1.3h0.2c0.9,0,1.5,0.4,1.9,1.3l5.2,11.7
		c0.1,0.3,0.2,0.5,0.2,0.7c0,0.4-0.2,0.8-0.5,1.1c-0.3,0.3-0.7,0.5-1.1,0.5c-0.7,0-1.2-0.4-1.6-1.1l-1-2.3h-6.5l-1,2.4
		c-0.3,0.7-0.8,1-1.5,1c-0.4,0-0.8-0.1-1.1-0.4C388,135.3,387.8,135,387.8,134.6 M393.1,129.7h4.1l-2.1-4.9L393.1,129.7z"/>
	<path class="st1" d="M411.7,136.2c-1.5,0-2.9-0.3-4.1-1c-1.2-0.7-2.1-1.6-2.8-2.7c-0.7-1.2-1-2.5-1-3.9v0c0-1,0.2-2,0.6-3
		c0.4-0.9,0.9-1.8,1.6-2.4c0.7-0.7,1.5-1.2,2.5-1.6c1-0.4,2-0.6,3.1-0.6c1.1,0,2,0.1,2.8,0.4c0.8,0.2,1.5,0.6,2.3,1.1
		c0.4,0.3,0.7,0.8,0.7,1.3c0,0.5-0.2,0.8-0.5,1.1c-0.3,0.3-0.7,0.5-1.1,0.5c-0.3,0-0.7-0.1-1-0.3c-0.5-0.3-1-0.6-1.5-0.8
		c-0.5-0.2-1.1-0.2-1.8-0.2c-1.2,0-2.2,0.5-3,1.4c-0.8,0.9-1.2,2-1.2,3.3v0c0,1.4,0.4,2.5,1.3,3.4c0.8,0.9,1.9,1.3,3.2,1.3
		c1.2,0,2.2-0.3,3.1-0.9v-2.1h-2.2c-0.4,0-0.7-0.1-1-0.4c-0.3-0.3-0.4-0.6-0.4-1c0-0.4,0.1-0.7,0.4-1c0.3-0.3,0.6-0.4,1-0.4h3.7
		c0.5,0,0.8,0.2,1.2,0.5c0.3,0.3,0.5,0.7,0.5,1.2v3.6c0,0.9-0.4,1.6-1.1,2.1C415.3,135.7,413.5,136.2,411.7,136.2"/>
	<path class="st1" d="M421.3,134.4v-11.8c0-0.5,0.2-0.8,0.5-1.2c0.3-0.3,0.7-0.5,1.2-0.5c0.5,0,0.8,0.2,1.2,0.5
		c0.3,0.3,0.5,0.7,0.5,1.2v11.8c0,0.5-0.2,0.8-0.5,1.2c-0.3,0.3-0.7,0.5-1.2,0.5c-0.5,0-0.8-0.2-1.2-0.5
		C421.5,135.3,421.3,134.9,421.3,134.4"/>
	<path class="st1" d="M428.3,134.5v-11.8c0-0.5,0.2-0.8,0.5-1.2c0.3-0.3,0.7-0.5,1.2-0.5h0.3c0.4,0,0.7,0.1,0.9,0.2
		c0.3,0.2,0.5,0.4,0.8,0.7l6.3,8.3v-7.7c0-0.5,0.2-0.8,0.5-1.1c0.3-0.3,0.7-0.5,1.1-0.5c0.5,0,0.8,0.2,1.1,0.5
		c0.3,0.3,0.5,0.7,0.5,1.1v11.8c0,0.5-0.2,0.8-0.5,1.2c-0.3,0.3-0.7,0.5-1.2,0.5h-0.1c-0.4,0-0.7-0.1-0.9-0.2
		c-0.3-0.2-0.5-0.4-0.8-0.7l-6.5-8.6v8c0,0.5-0.2,0.8-0.5,1.1c-0.3,0.3-0.7,0.5-1.1,0.5c-0.5,0-0.8-0.2-1.1-0.5
		C428.4,135.3,428.3,134.9,428.3,134.5"/>
	<path class="st1" d="M452.2,136.2c-1.5,0-2.9-0.3-4.1-1c-1.2-0.7-2.1-1.6-2.8-2.7c-0.7-1.2-1-2.5-1-3.9v0c0-1,0.2-2,0.6-3
		c0.4-0.9,0.9-1.8,1.6-2.4c0.7-0.7,1.5-1.2,2.5-1.6c1-0.4,2-0.6,3.1-0.6c1.1,0,2,0.1,2.8,0.4c0.8,0.2,1.5,0.6,2.3,1.1
		c0.4,0.3,0.7,0.8,0.7,1.3c0,0.5-0.2,0.8-0.5,1.1c-0.3,0.3-0.7,0.5-1.1,0.5c-0.3,0-0.7-0.1-1-0.3c-0.5-0.3-1-0.6-1.5-0.8
		c-0.5-0.2-1.1-0.2-1.8-0.2c-1.2,0-2.2,0.5-3,1.4c-0.8,0.9-1.2,2-1.2,3.3v0c0,1.4,0.4,2.5,1.3,3.4c0.8,0.9,1.9,1.3,3.2,1.3
		c1.2,0,2.2-0.3,3.1-0.9v-2.1h-2.2c-0.4,0-0.7-0.1-1-0.4c-0.3-0.3-0.4-0.6-0.4-1c0-0.4,0.1-0.7,0.4-1c0.3-0.3,0.6-0.4,1-0.4h3.7
		c0.5,0,0.8,0.2,1.2,0.5c0.3,0.3,0.5,0.7,0.5,1.2v3.6c0,0.9-0.4,1.6-1.1,2.1C455.7,135.7,454,136.2,452.2,136.2"/>
	<path class="st1" d="M478,136h-8.3c-0.5,0-0.8-0.2-1.2-0.5c-0.3-0.3-0.5-0.7-0.5-1.2v-11.6c0-0.5,0.2-0.8,0.5-1.2
		c0.3-0.3,0.7-0.5,1.2-0.5h8.2c0.4,0,0.8,0.1,1,0.4c0.3,0.3,0.4,0.6,0.4,1c0,0.4-0.1,0.8-0.4,1c-0.3,0.3-0.6,0.4-1,0.4h-6.6v3h5.7
		c0.4,0,0.8,0.1,1,0.4c0.3,0.3,0.4,0.6,0.4,1c0,0.4-0.1,0.8-0.4,1c-0.3,0.3-0.6,0.4-1,0.4h-5.7v3.1h6.7c0.4,0,0.8,0.1,1,0.4
		c0.3,0.3,0.4,0.6,0.4,1c0,0.4-0.1,0.8-0.4,1C478.7,135.8,478.4,136,478,136"/>
	<path class="st1" d="M481.4,134.6c0-0.4,0.2-0.8,0.5-1.3l4-4.9l-3.8-4.6c-0.3-0.4-0.5-0.8-0.5-1.2c0-0.5,0.2-0.8,0.5-1.1
		c0.3-0.3,0.7-0.5,1.1-0.5c0.3,0,0.6,0.1,0.8,0.2c0.2,0.1,0.4,0.3,0.7,0.6l3.2,4.3l3.2-4.2c0.2-0.3,0.5-0.5,0.7-0.7
		c0.2-0.1,0.5-0.2,0.9-0.2c0.4,0,0.7,0.1,1,0.4c0.3,0.3,0.4,0.6,0.4,1.1c0,0.4-0.2,0.8-0.5,1.2l-3.8,4.6l4,4.9
		c0.3,0.4,0.5,0.8,0.5,1.2c0,0.5-0.2,0.8-0.5,1.1c-0.3,0.3-0.7,0.5-1.2,0.5c-0.3,0-0.6-0.1-0.8-0.2c-0.2-0.1-0.4-0.3-0.7-0.6
		l-3.5-4.6l-3.4,4.5c-0.2,0.3-0.5,0.5-0.7,0.7c-0.2,0.1-0.5,0.2-0.9,0.2c-0.4,0-0.7-0.1-1-0.4C481.5,135.4,481.4,135,481.4,134.6"/>
	<path class="st1" d="M497.3,134.4v-11.8c0-0.5,0.2-0.8,0.5-1.2c0.3-0.3,0.7-0.5,1.2-0.5c0.5,0,0.8,0.2,1.2,0.5
		c0.3,0.3,0.5,0.7,0.5,1.2v4.4h6v-4.4c0-0.5,0.2-0.8,0.5-1.2c0.3-0.3,0.7-0.5,1.2-0.5c0.5,0,0.8,0.2,1.2,0.5
		c0.3,0.3,0.5,0.7,0.5,1.2v11.8c0,0.5-0.2,0.8-0.5,1.2c-0.3,0.3-0.7,0.5-1.2,0.5c-0.5,0-0.8-0.2-1.2-0.5c-0.3-0.3-0.5-0.7-0.5-1.2
		V130h-6v4.5c0,0.5-0.2,0.8-0.5,1.2c-0.3,0.3-0.7,0.5-1.2,0.5c-0.5,0-0.8-0.2-1.2-0.5C497.4,135.3,497.3,134.9,497.3,134.4"/>
	<path class="st1" d="M513.5,134.4v-11.8c0-0.5,0.2-0.8,0.5-1.2c0.3-0.3,0.7-0.5,1.2-0.5s0.8,0.2,1.2,0.5c0.3,0.3,0.5,0.7,0.5,1.2
		v11.8c0,0.5-0.2,0.8-0.5,1.2c-0.3,0.3-0.7,0.5-1.2,0.5s-0.8-0.2-1.2-0.5C513.7,135.3,513.5,134.9,513.5,134.4"/>
	<path class="st1" d="M520.5,134.3v-11.6c0-0.5,0.2-0.8,0.5-1.2c0.3-0.3,0.7-0.5,1.2-0.5h5.3c1.7,0,3,0.4,3.9,1.3
		c0.7,0.7,1,1.5,1,2.5v0c0,1.5-0.7,2.5-2,3.2c0.9,0.3,1.6,0.8,2.1,1.4c0.5,0.6,0.7,1.3,0.7,2.3v0c0,1.3-0.5,2.3-1.5,3
		c-1,0.7-2.4,1-4.1,1h-5.4c-0.5,0-0.8-0.2-1.2-0.5C520.7,135.2,520.5,134.8,520.5,134.3 M523.7,127.1h3c1.6,0,2.4-0.5,2.4-1.6v0
		c0-0.5-0.2-0.9-0.5-1.1c-0.4-0.3-0.9-0.4-1.6-0.4h-3.2V127.1z M523.7,133.1h3.9c0.7,0,1.3-0.1,1.7-0.4c0.4-0.3,0.6-0.7,0.6-1.2v0
		c0-1.1-0.8-1.6-2.4-1.6h-3.8V133.1z"/>
	<path class="st1" d="M535.9,134.4v-11.8c0-0.5,0.2-0.8,0.5-1.2c0.3-0.3,0.7-0.5,1.2-0.5c0.5,0,0.8,0.2,1.2,0.5
		c0.3,0.3,0.5,0.7,0.5,1.2v11.8c0,0.5-0.2,0.8-0.5,1.2c-0.3,0.3-0.7,0.5-1.2,0.5c-0.5,0-0.8-0.2-1.2-0.5
		C536.1,135.3,535.9,134.9,535.9,134.4"/>
	<path class="st1" d="M546.4,134.4v-10.3h-3.1c-0.4,0-0.8-0.1-1.1-0.4c-0.3-0.3-0.4-0.6-0.4-1.1c0-0.4,0.1-0.8,0.4-1.1
		c0.3-0.3,0.7-0.4,1.1-0.4h9.5c0.4,0,0.8,0.1,1.1,0.4c0.3,0.3,0.4,0.7,0.4,1.1c0,0.4-0.1,0.8-0.4,1.1c-0.3,0.3-0.7,0.4-1.1,0.4h-3.1
		v10.3c0,0.5-0.2,0.8-0.5,1.2c-0.3,0.3-0.7,0.5-1.2,0.5s-0.8-0.2-1.2-0.5C546.5,135.3,546.4,134.9,546.4,134.4"/>
	<path class="st1" d="M556.8,134.4v-11.8c0-0.5,0.2-0.8,0.5-1.2c0.3-0.3,0.7-0.5,1.2-0.5c0.5,0,0.8,0.2,1.2,0.5
		c0.3,0.3,0.5,0.7,0.5,1.2v11.8c0,0.5-0.2,0.8-0.5,1.2c-0.3,0.3-0.7,0.5-1.2,0.5c-0.5,0-0.8-0.2-1.2-0.5
		C557,135.3,556.8,134.9,556.8,134.4"/>
	<path class="st1" d="M574.2,135.6c-1,0.4-2,0.6-3.2,0.6c-1.1,0-2.2-0.2-3.2-0.6c-1-0.4-1.8-0.9-2.5-1.6c-0.7-0.7-1.2-1.5-1.6-2.4
		c-0.4-0.9-0.6-1.9-0.6-3v0c0-1,0.2-2,0.6-3c0.4-0.9,0.9-1.8,1.6-2.4c0.7-0.7,1.5-1.2,2.5-1.6c1-0.4,2-0.6,3.2-0.6
		c1.5,0,2.8,0.3,4,1c1.2,0.7,2.1,1.6,2.8,2.8c0.7,1.2,1,2.4,1,3.8v0c0,1-0.2,2-0.6,3c-0.4,0.9-0.9,1.8-1.6,2.4
		C576,134.6,575.1,135.2,574.2,135.6 M568.7,132.6c0.7,0.4,1.5,0.6,2.3,0.6c0.9,0,1.6-0.2,2.3-0.6c0.7-0.4,1.2-1,1.6-1.7
		c0.4-0.7,0.6-1.5,0.6-2.3v0c0-1.3-0.4-2.4-1.3-3.3c-0.9-0.9-1.9-1.4-3.2-1.4c-0.9,0-1.6,0.2-2.3,0.6c-0.7,0.4-1.2,1-1.6,1.7
		c-0.4,0.7-0.6,1.5-0.6,2.3v0c0,0.8,0.2,1.6,0.6,2.3C567.5,131.6,568,132.1,568.7,132.6z"/>
	<path class="st1" d="M581.8,134.5v-11.8c0-0.5,0.2-0.8,0.5-1.2c0.3-0.3,0.7-0.5,1.2-0.5h0.3c0.4,0,0.7,0.1,0.9,0.2
		c0.3,0.2,0.5,0.4,0.8,0.7l6.3,8.3v-7.7c0-0.5,0.2-0.8,0.5-1.1c0.3-0.3,0.7-0.5,1.1-0.5c0.5,0,0.8,0.2,1.1,0.5
		c0.3,0.3,0.5,0.7,0.5,1.1v11.8c0,0.5-0.2,0.8-0.5,1.2c-0.3,0.3-0.7,0.5-1.2,0.5h-0.1c-0.4,0-0.7-0.1-0.9-0.2
		c-0.3-0.2-0.5-0.4-0.8-0.7l-6.5-8.6v8c0,0.5-0.2,0.8-0.5,1.1c-0.3,0.3-0.7,0.5-1.1,0.5c-0.5,0-0.8-0.2-1.1-0.5
		C582,135.3,581.8,134.9,581.8,134.5"/>
	<g>
		<path class="st0" d="M595,18.6c0,4.9-4,8.9-8.9,8.8c-4.8-0.1-8.6-4-8.6-8.8c0.1-4.8,3.9-8.5,8.4-8.7C591,9.6,595,13.7,595,18.6z
			 M593.9,18.6c0-4.3-3.5-7.6-7.5-7.7c-4.3-0.1-7.8,3.4-7.8,7.6c0,4.3,3.4,7.7,7.6,7.7C590.5,26.2,593.9,22.8,593.9,18.6z"/>
		<path class="st0" d="M590.2,17.1c0,0.2-0.1,0.3-0.1,0.5c-0.3,1-0.5,2-0.8,3c0,0.2-0.1,0.3-0.1,0.5c0,0.1,0,0.1-0.1,0.1
			c-0.3,0-0.6,0-0.9,0c-0.1,0-0.1,0-0.1-0.1c-0.2-1-0.5-1.9-0.7-2.9c-0.1-0.4-0.2-0.7-0.3-1.1c0,0,0,0,0,0c0,1.4,0,2.7,0,4.1
			c-0.3,0-0.7,0-1,0c0-1.7,0-3.5,0-5.2c0,0,0.1,0,0.1,0c0.5,0,0.9,0,1.4,0c0.1,0,0.1,0,0.1,0.1c0.3,1.1,0.6,2.3,0.9,3.4
			c0,0,0,0.1,0,0.1c0-0.2,0.1-0.3,0.1-0.5c0.3-1,0.5-2,0.8-3c0-0.1,0-0.1,0.1-0.1c0.5,0,1,0,1.5,0c0,0,0,0,0.1,0c0,0,0,0.1,0,0.1
			c0,1.7,0,3.4,0,5c0,0.1,0,0.1-0.1,0.1c-0.3,0-0.6,0-0.9,0C590.2,19.8,590.2,18.5,590.2,17.1C590.2,17.1,590.2,17.1,590.2,17.1z"/>
		<path class="st0" d="M585.4,15.9c0,0.3,0,0.6,0,0.9c-0.5,0-1,0-1.6,0c0,1.5,0,2.9,0,4.4c-0.4,0-0.7,0-1.1,0c0-1.5,0-2.9,0-4.4
			c-0.5,0-1,0-1.6,0c0-0.3,0-0.6,0-0.9C582.7,15.9,584,15.9,585.4,15.9z"/>
	</g>
</g>
</svg>
