<svg width="30" height="30" viewBox="0 0 30 30" fill="none" xmlns="http://www.w3.org/2000/svg">
<rect width="30.0005" height="30" rx="15" fill="#EEFFE9"/>
<path d="M23.0169 10.9275C22.823 10.2163 22.2411 9.63443 21.5299 9.44046C20.2368 9.11719 14.9997 9.11719 14.9997 9.11719C14.9997 9.11719 9.76263 9.11719 8.46952 9.44046C7.75832 9.63443 7.17642 10.2163 6.98246 10.9275C6.65918 12.2206 6.65918 14.9362 6.65918 14.9362C6.65918 14.9362 6.65918 17.6517 6.98246 18.9448C7.17642 19.656 7.75832 20.2379 8.46952 20.4318C9.76263 20.7551 14.9997 20.7551 14.9997 20.7551C14.9997 20.7551 20.2368 20.7551 21.5299 20.4318C22.2411 20.2379 22.823 19.656 23.0169 18.9448C23.3402 17.6517 23.3402 14.9362 23.3402 14.9362C23.3402 14.9362 23.3402 12.2853 23.0169 10.9275ZM13.3187 17.4577V12.4793L17.6506 14.9362L13.3187 17.4577Z" fill="#99CC5E"/>
</svg>
