<svg xmlns="http://www.w3.org/2000/svg" xmlns:xlink="http://www.w3.org/1999/xlink" viewBox="0 0 172.39 53.14">
	<defs>
		<style>.cls-1{fill:none;}.cls-2{clip-path:url(#clip-path);}</style>
		<clipPath id="clip-path" transform="translate(-0.8 -1.43)"><rect id="SVGID" class="cls-1" width="174" height="56"/></clipPath></defs><title>Asset 33</title><g id="Layer_2" data-name="Layer 2"><g id="Black_Logo_87X28" data-name="Black Logo 87X28"><g class="cls-2">
		<path d="M67.26,25.1h1.09v7.61H67.26V25.1ZM61.8,32.71h1.08V25.1H61.8Zm23.94-1.36L83,25.1H81.83l3.35,7.61h1.07l3.34-7.61H88.5Zm9.56-2.24-2.43-4H91.7l3,5v2.65H95.8V30.08l3-5H97.75ZM117.07,26h2.75v4.28a1.75,1.75,0,0,1-.33,1.15,1.19,1.19,0,0,1-1,.39,1.88,1.88,0,0,1-1.59-.9l-.63.74a2.35,2.35,0,0,0,1,.81,2.85,2.85,0,0,0,1.27.29,2.32,2.32,0,0,0,1.78-.64,2.67,2.67,0,0,0,.6-1.9V25.1h-3.83Zm25.64,5.28-2.1-6.22h-1l-2.14,6.18-2.06-6.18h-1.12l2.55,7.61H138l2.08-6.08,2.08,6.08h1.14l2.55-7.61h-1Zm17.63-6.22h-1.09v7.61h5.21v-.95h-4.12Zm12.48,4.39a2.37,2.37,0,0,0-.9-.63,9.46,9.46,0,0,0-1.38-.41c-.44-.11-.79-.2-1-.29a1.89,1.89,0,0,1-.65-.38.87.87,0,0,1-.26-.64,1,1,0,0,1,.47-.87,2.36,2.36,0,0,1,1.38-.34,4,4,0,0,1,1.07.16,4.26,4.26,0,0,1,1,.46l.36-.87a3.84,3.84,0,0,0-1.12-.5,5.45,5.45,0,0,0-1.33-.17,4.08,4.08,0,0,0-1.62.29,2.22,2.22,0,0,0-1,.79,1.88,1.88,0,0,0-.32,1.09,1.68,1.68,0,0,0,.37,1.16,2.25,2.25,0,0,0,.91.64,10.9,10.9,0,0,0,1.38.41,10.46,10.46,0,0,1,1.06.3,1.64,1.64,0,0,1,.63.37.85.85,0,0,1,.26.64,1,1,0,0,1-.47.85,2.45,2.45,0,0,1-1.41.32,4.16,4.16,0,0,1-1.4-.24,3.54,3.54,0,0,1-1.12-.64l-.4.85a3.57,3.57,0,0,0,1.26.69,5.11,5.11,0,0,0,1.66.27,4.13,4.13,0,0,0,1.63-.29,2.19,2.19,0,0,0,1-.78,2,2,0,0,0,.33-1.1A1.65,1.65,0,0,0,172.82,29.49ZM64.16,28.9l.9.91L66,28.9l-.91-.9Zm64.73.91.9-.91-.9-.9-.9.9Zm-2.29-.5V26h4.29V25.1h-5.38v7.61H131v-.95H126.6Zm26.34.5.91-.91-.91-.9-.9.9Zm-2.29-.5V26h4.29V25.1h-5.37v7.61h5.52v-.95h-4.44ZM75,30.94l.9.9.91-.9L75.86,30Zm.36-5.84-3.45,7.61H73l.81-1.84,2-4.67,2,4.61.83,1.9h1.15L76.4,25.1Zm28.48,5.84.9.9.91-.9L104.7,30Zm.36-5.84-3.45,7.61h1.12l.81-1.84,2-4.67,2,4.61.83,1.9h1.15l-3.46-7.61Z" transform="translate(-0.8 -1.43)" fill="#fff"/><path d="M27.37,1.43.8,28,27.37,54.57,53.94,28ZM2.94,28,27.37,3.57,51.8,28,27.37,52.43Zm21.52-5.41H26v10.7H24.46V22.59Zm-7.67,0h1.53v10.7H16.79Zm21.17,0v7.26a3.79,3.79,0,0,1-.85,2.67,3.32,3.32,0,0,1-2.5.89,4,4,0,0,1-1.79-.4,3.42,3.42,0,0,1-1.33-1.14l.89-1a2.65,2.65,0,0,0,2.23,1.27A1.72,1.72,0,0,0,36,31.55a2.46,2.46,0,0,0,.46-1.62v-6H32.58V22.59ZM21.38,26.67l1.27,1.27-1.27,1.27-1.27-1.27Zm8.26,0,1.27,1.27-1.27,1.27-1.27-1.27Z" transform="translate(-0.8 -1.43)" fill="#fff"/></g></g></g></svg>