<svg width="30" height="30" viewBox="0 0 30 30" fill="none" xmlns="http://www.w3.org/2000/svg">
<circle cx="15" cy="15" r="15" fill="white"/>
<path d="M15.1656 12.8853C13.9112 12.8853 12.8875 13.909 12.8875 15.1633C12.8875 16.4177 13.9112 17.4414 15.1656 17.4414C16.4199 17.4414 17.4436 16.4177 17.4436 15.1633C17.4436 13.909 16.4199 12.8853 15.1656 12.8853ZM21.9981 15.1633C21.9981 14.22 22.0066 13.2852 21.9536 12.3435C21.9007 11.2498 21.6512 10.2791 20.8513 9.47927C20.0498 8.67775 19.0808 8.42995 17.9871 8.37697C17.0437 8.32399 16.1089 8.33254 15.1673 8.33254C14.2239 8.33254 13.2891 8.32399 12.3474 8.37697C11.2537 8.42995 10.283 8.67946 9.48318 9.47927C8.68166 10.2808 8.43386 11.2498 8.38088 12.3435C8.3279 13.2869 8.33645 14.2217 8.33645 15.1633C8.33645 16.105 8.3279 17.0415 8.38088 17.9832C8.43386 19.0769 8.68337 20.0476 9.48318 20.8474C10.2847 21.6489 11.2537 21.8967 12.3474 21.9497C13.2908 22.0027 14.2256 21.9942 15.1673 21.9942C16.1106 21.9942 17.0454 22.0027 17.9871 21.9497C19.0808 21.8967 20.0515 21.6472 20.8513 20.8474C21.6529 20.0459 21.9007 19.0769 21.9536 17.9832C22.0083 17.0415 21.9981 16.1067 21.9981 15.1633V15.1633ZM15.1656 18.6685C13.2259 18.6685 11.6604 17.103 11.6604 15.1633C11.6604 13.2237 13.2259 11.6582 15.1656 11.6582C17.1053 11.6582 18.6707 13.2237 18.6707 15.1633C18.6707 17.103 17.1053 18.6685 15.1656 18.6685ZM18.8142 12.3333C18.3614 12.3333 17.9956 11.9675 17.9956 11.5147C17.9956 11.0618 18.3614 10.6961 18.8142 10.6961C19.2671 10.6961 19.6328 11.0618 19.6328 11.5147C19.633 11.6222 19.6119 11.7287 19.5708 11.8281C19.5297 11.9275 19.4694 12.0178 19.3934 12.0938C19.3173 12.1698 19.227 12.2301 19.1277 12.2712C19.0283 12.3123 18.9218 12.3334 18.8142 12.3333V12.3333Z" fill="black"/>
</svg>
