<svg width="30" height="30" viewBox="0 0 30 30" fill="none" xmlns="http://www.w3.org/2000/svg">
<circle cx="15" cy="15" r="15" fill="white"/>
<path d="M10.069 16.7931C10.2759 16.8621 10.4828 16.7931 10.5517 16.5172C10.6207 16.3793 10.6897 15.8965 10.7586 15.7586C10.8276 15.4828 10.8276 15.4138 10.6207 15.2069C10.2069 14.7241 10 14.1724 10 13.2759C10 10.7931 11.8621 8.65517 14.7586 8.65517C17.3793 8.65517 18.7586 10.2414 18.7586 12.3793C18.7586 15.2069 17.5172 17.5517 15.6552 17.5517C14.6207 17.5517 13.8621 16.7241 14.1379 15.6897C14.4138 14.4483 14.9655 13.1379 14.9655 12.2414C14.9655 11.4138 14.5517 10.7931 13.6552 10.7931C12.6207 10.7931 11.7931 11.8966 11.7931 13.2759C11.7931 14.1724 12.069 14.7931 12.069 14.7931C12.069 14.7931 11.0345 19.2759 10.8276 20.1034C10.4828 21.6897 10.7586 23.6207 10.8276 23.7586C10.8276 23.8966 10.9655 23.8966 11.0345 23.8276C11.1034 23.6897 12.3448 22.1724 12.7586 20.6552C12.8966 20.2414 13.4483 17.9655 13.4483 17.9655C13.7931 18.5862 14.7586 19.2069 15.7931 19.2069C18.8966 19.2069 21.0345 16.3793 21.0345 12.5862C21.0345 9.68965 18.6207 7 14.8966 7C10.2759 7 8 10.3103 8 13.069C8.06897 14.7931 8.68966 16.2414 10.069 16.7931Z" fill="black"/>
</svg>
