<svg width="30" height="30" viewBox="0 0 30 30" fill="none" xmlns="http://www.w3.org/2000/svg">
<circle cx="15" cy="15" r="15" fill="white"/>
<path d="M23.5019 11.0307C23.4002 10.6375 23.2007 10.2789 22.9234 9.99081C22.6461 9.70272 22.3008 9.49525 21.9219 9.38917C20.5274 9 14.9375 9 14.9375 9C14.9375 9 9.34757 9 7.95308 9.3871C7.57408 9.49284 7.22856 9.70019 6.95122 9.98833C6.67388 10.2765 6.47448 10.6353 6.37306 11.0287C6 12.4777 6 15.5 6 15.5C6 15.5 6 18.5223 6.37306 19.9693C6.57854 20.7683 7.18502 21.3976 7.95308 21.6108C9.34757 22 14.9375 22 14.9375 22C14.9375 22 20.5274 22 21.9219 21.6108C22.692 21.3976 23.2965 20.7683 23.5019 19.9693C23.875 18.5223 23.875 15.5 23.875 15.5C23.875 15.5 23.875 12.4777 23.5019 11.0307ZM13.162 18.2739V12.7261L17.7903 15.4793L13.162 18.2739Z" fill="black"/>
</svg>
